<svg width="168" height="55" viewBox="0 0 168 55" fill="none" xmlns="http://www.w3.org/2000/svg">
<g clip-path="url(#clip0_5_4919)">
<g clip-path="url(#clip1_5_4919)">
<g clip-path="url(#clip2_5_4919)">
<path d="M80.5719 30.6942C79.7489 30.6942 79.1545 30.5696 78.7887 30.3206C78.4229 30.0488 78.1943 29.7091 78.1029 29.3015C78.0343 28.8713 78 28.4297 78 27.9768V9.56645C78 9.11355 78.0343 8.69462 78.1029 8.30965C78.1943 7.90204 78.4229 7.57369 78.7887 7.3246C79.1545 7.05286 79.7603 6.91699 80.6062 6.91699H89.1447C90.4935 6.91699 91.6938 7.23402 92.7454 7.86808C93.797 8.50213 94.6314 9.35132 95.2486 10.4157C95.8659 11.48 96.1631 12.6349 96.1402 13.8803C96.1631 14.3785 96.1174 14.8654 96.0031 15.3409C95.8887 15.8165 95.7173 16.2807 95.4887 16.7336C95.2829 17.1638 95.02 17.5601 94.7 17.9225C95.1801 18.3754 95.5801 18.8962 95.9002 19.485C96.2202 20.0511 96.4603 20.6512 96.6203 21.2852C96.8032 21.9193 96.8946 22.5647 96.8946 23.2214C96.8718 24.263 96.666 25.2481 96.2774 26.1765C95.9116 27.0823 95.3858 27.8749 94.7 28.5542C94.0141 29.211 93.2254 29.7318 92.3339 30.1167C91.4423 30.5017 90.4935 30.6942 89.4877 30.6942H80.5719ZM83.2123 25.5651H89.1447C89.5334 25.5651 89.922 25.4972 90.3107 25.3613C90.7222 25.2028 91.0536 24.9311 91.3051 24.5461C91.5794 24.1385 91.7166 23.5724 91.7166 22.8477C91.7166 22.3722 91.6595 21.9759 91.5452 21.6589C91.4309 21.3418 91.2708 21.1041 91.0651 20.9456C90.8593 20.7644 90.6307 20.6398 90.3792 20.5719C90.1278 20.504 89.8649 20.4587 89.5905 20.436C89.3162 20.4134 89.0533 20.4021 88.8018 20.4021H87.8074C87.0301 20.4021 86.4814 20.2436 86.1614 19.9265C85.8413 19.5869 85.6813 19.0094 85.6813 18.1942C85.6813 17.4016 85.8528 16.8468 86.1957 16.5298C86.5615 16.2128 87.133 16.0542 87.9103 16.0542H88.9047C89.1333 16.0542 89.3734 16.0429 89.6248 16.0203C89.8763 15.9976 90.0935 15.9297 90.2764 15.8165C90.4821 15.7033 90.6421 15.5221 90.7565 15.273C90.8936 15.0013 90.9622 14.6389 90.9622 14.186C90.9622 13.4161 90.7679 12.8726 90.3792 12.5556C89.9906 12.2159 89.3048 12.0461 88.3218 12.0461H83.2123V25.5651Z" fill="white"/>
<path d="M113.123 30.6601C112.278 30.6601 111.649 30.5129 111.237 30.2185C110.849 29.9242 110.654 29.5618 110.654 29.1316L110.997 28.5541C110.86 28.7806 110.597 29.0637 110.209 29.4033C109.82 29.7204 109.317 30.0147 108.7 30.2865C108.083 30.5356 107.317 30.6601 106.402 30.6601C105.351 30.6601 104.345 30.4338 103.385 29.9809C102.447 29.528 101.613 28.9051 100.881 28.1126C100.15 27.2975 99.5667 26.3802 99.1323 25.3612C98.7208 24.3422 98.5151 23.2667 98.5151 22.1343C98.5151 21.0247 98.7208 19.9717 99.1323 18.9753C99.5667 17.9563 100.15 17.0619 100.881 16.292C101.636 15.4994 102.482 14.8766 103.419 14.4237C104.356 13.9708 105.351 13.7444 106.402 13.7444C107.248 13.7444 107.968 13.8689 108.563 14.118C109.157 14.3445 109.648 14.6162 110.037 14.9332C110.449 15.2503 110.757 15.556 110.963 15.8503L110.689 15.3748C110.666 14.8313 110.849 14.4237 111.237 14.152C111.649 13.8576 112.289 13.7104 113.158 13.7104C113.981 13.7104 114.564 13.8349 114.907 14.084C115.272 14.3331 115.489 14.6615 115.558 15.0691C115.65 15.4767 115.695 15.907 115.695 16.3599V28.0786C115.695 28.5089 115.65 28.9278 115.558 29.3354C115.489 29.743 115.272 30.0714 114.907 30.3205C114.564 30.5469 113.969 30.6601 113.123 30.6601ZM107.157 25.599C107.751 25.599 108.288 25.4518 108.768 25.1574C109.271 24.8404 109.66 24.4214 109.934 23.9007C110.231 23.3799 110.38 22.8024 110.38 22.1684C110.38 21.5117 110.231 20.9341 109.934 20.4359C109.637 19.9151 109.237 19.5076 108.734 19.2132C108.231 18.8962 107.682 18.7376 107.088 18.7376C106.425 18.7376 105.831 18.8962 105.305 19.2132C104.802 19.5301 104.39 19.9491 104.07 20.4699C103.773 20.9907 103.625 21.5795 103.625 22.2362C103.625 22.8476 103.773 23.4137 104.07 23.9346C104.39 24.4328 104.813 24.8404 105.339 25.1574C105.888 25.4518 106.494 25.599 107.157 25.599Z" fill="white"/>
<path d="M127.645 30.6603C126.525 30.6603 125.53 30.4339 124.662 29.981C123.816 29.5054 123.107 28.8714 122.536 28.0788C121.987 27.2862 121.564 26.3804 121.267 25.3614C120.992 24.3424 120.867 23.2554 120.89 22.1005C120.89 20.9909 121.038 19.9266 121.335 18.9076C121.633 17.8886 122.056 16.9941 122.604 16.2242C123.176 15.4543 123.873 14.8542 124.696 14.4239C125.542 13.971 126.525 13.7446 127.645 13.7446C128.651 13.7446 129.623 13.971 130.56 14.4239C131.52 14.8768 132.366 15.4995 133.097 16.2921C133.829 17.062 134.4 17.9565 134.812 18.9755C135.246 19.9719 135.463 21.0249 135.463 22.1345C135.463 23.2894 135.246 24.3877 134.812 25.4293C134.4 26.4484 133.829 27.3542 133.097 28.1467C132.366 28.9393 131.531 29.562 130.594 30.0149C129.657 30.4452 128.674 30.6603 127.645 30.6603ZM126.925 25.6332C127.565 25.6332 128.137 25.486 128.639 25.1916C129.142 24.8745 129.542 24.4556 129.84 23.9348C130.16 23.4139 130.32 22.8365 130.32 22.2024C130.32 21.5457 130.171 20.9683 129.874 20.4701C129.577 19.9493 129.177 19.5417 128.674 19.2473C128.171 18.9529 127.599 18.8057 126.959 18.8057C126.342 18.8057 125.77 18.9529 125.245 19.2473C124.742 19.5417 124.342 19.9493 124.044 20.4701C123.77 20.9683 123.633 21.5457 123.633 22.2024C123.633 22.8365 123.782 23.4139 124.079 23.9348C124.376 24.4556 124.776 24.8745 125.279 25.1916C125.782 25.486 126.331 25.6332 126.925 25.6332ZM120.958 30.6943C120.135 30.6943 119.541 30.5697 119.175 30.3207C118.809 30.0716 118.581 29.7545 118.489 29.3696C118.421 28.962 118.386 28.543 118.386 28.1128V8.58152C118.386 8.10598 118.432 7.67573 118.523 7.29076C118.615 6.9058 118.832 6.60009 119.175 6.37364C119.541 6.12455 120.147 6 120.992 6C121.815 6 122.398 6.12455 122.741 6.37364C123.084 6.62274 123.29 6.95109 123.359 7.3587C123.427 7.74366 123.45 8.15127 123.427 8.58152V29.1658C123.313 29.6866 123.073 30.0716 122.707 30.3207C122.341 30.5697 121.758 30.6943 120.958 30.6943Z" fill="white"/>
<path d="M146.282 31.0001C144.681 31.0001 143.298 30.7397 142.132 30.2188C140.989 29.698 140.052 29.0187 139.32 28.1808C138.589 27.3203 138.04 26.3692 137.674 25.3275C137.332 24.2859 137.16 23.2442 137.16 22.2025C137.16 20.5042 137.549 18.9983 138.326 17.6849C139.103 16.3715 140.178 15.3411 141.549 14.5939C142.921 13.8239 144.499 13.439 146.282 13.439C147.608 13.439 148.751 13.6541 149.711 14.0843C150.694 14.4919 151.494 15.0354 152.111 15.7148C152.751 16.3715 153.22 17.0848 153.517 17.8547C153.837 18.6246 153.997 19.3606 153.997 20.0626C153.997 21.3081 153.689 22.2365 153.071 22.8479C152.477 23.4367 151.711 23.7311 150.774 23.7311H142.612C142.658 24.3198 142.864 24.818 143.23 25.2256C143.618 25.6333 144.098 25.9503 144.67 26.1767C145.241 26.4032 145.847 26.5164 146.487 26.5164C147.036 26.5164 147.516 26.4938 147.928 26.4485C148.339 26.3805 148.694 26.3013 148.991 26.2107C149.288 26.0975 149.562 25.9956 149.814 25.905C150.065 25.7918 150.282 25.7012 150.465 25.6333C150.671 25.5653 150.865 25.52 151.048 25.4974C151.391 25.4747 151.7 25.5766 151.974 25.8031C152.271 26.0069 152.534 26.3239 152.763 26.7542C152.923 27.0033 153.026 27.241 153.071 27.4675C153.14 27.6939 153.174 27.9204 153.174 28.1468C153.174 28.6903 152.889 29.1772 152.317 29.6074C151.768 30.0377 150.98 30.3774 149.951 30.6265C148.945 30.8756 147.722 31.0001 146.282 31.0001ZM142.612 20.9458H148.031C148.396 20.9458 148.659 20.8891 148.819 20.7759C149.002 20.64 149.094 20.391 149.094 20.0286C149.094 19.621 148.968 19.27 148.716 18.9756C148.465 18.6586 148.122 18.4208 147.688 18.2623C147.276 18.0812 146.796 17.9906 146.247 17.9906C145.539 17.9906 144.91 18.1265 144.361 18.3982C143.813 18.6699 143.378 19.0323 143.058 19.4852C142.761 19.9381 142.612 20.4249 142.612 20.9458Z" fill="white"/>
<path d="M164.674 30.6943C163.508 30.6943 162.502 30.5697 161.656 30.3207C160.833 30.0716 160.147 29.6866 159.599 29.1658C159.05 28.6449 158.638 27.9882 158.364 27.1957C158.113 26.3804 157.987 25.418 157.987 24.3084V10.5177C157.987 10.0648 158.021 9.65721 158.09 9.29489C158.181 8.93257 158.41 8.63818 158.776 8.41174C159.141 8.16264 159.736 8.03809 160.559 8.03809C161.382 8.03809 161.976 8.16264 162.342 8.41174C162.708 8.66083 162.925 8.97786 162.993 9.36282C163.085 9.74779 163.131 10.1667 163.131 10.6196V24.1046C163.131 24.4669 163.153 24.7726 163.199 25.0217C163.268 25.2482 163.359 25.418 163.474 25.5312C163.588 25.6445 163.748 25.7237 163.954 25.769C164.159 25.8143 164.411 25.837 164.708 25.837C165.211 25.837 165.657 25.8822 166.045 25.9728C166.434 26.0634 166.731 26.2672 166.937 26.5842C167.166 26.9013 167.28 27.4334 167.28 28.1807C167.28 28.9959 167.154 29.5847 166.903 29.947C166.651 30.3093 166.32 30.5245 165.908 30.5924C165.52 30.6603 165.108 30.6943 164.674 30.6943ZM156.924 13.9823H160.696L165.428 13.8465C165.862 13.8465 166.274 13.8918 166.663 13.9823C167.051 14.0503 167.371 14.2654 167.623 14.6277C167.874 14.99 168 15.5901 168 16.428C168 17.1979 167.874 17.764 167.623 18.1264C167.394 18.4887 167.086 18.7264 166.697 18.8397C166.308 18.9303 165.885 18.9755 165.428 18.9755L160.936 18.8736H156.787C156.124 18.851 155.655 18.6585 155.381 18.2962C155.129 17.9112 155.004 17.2772 155.004 16.394C155.004 15.5788 155.164 14.9787 155.484 14.5938C155.804 14.1861 156.284 13.9823 156.924 13.9823Z" fill="white"/>
<path d="M158.309 53.9942V55H87.6908V53.9942H158.309ZM167.025 45C167.025 40.0327 163.123 36.0058 158.309 36.0058H87.6908C82.8771 36.0058 78.9747 40.0327 78.9747 45C78.9748 49.9673 82.8771 53.9942 87.6908 53.9942V55L87.4408 54.9967C82.2874 54.8621 78.1337 50.5758 78.0032 45.258L78 45C78 39.5635 82.2041 35.1403 87.4405 35.0033L87.6908 35H158.309L158.56 35.0033C163.796 35.1403 168 39.5635 168 45L167.997 45.258C167.866 50.5757 163.713 54.8619 158.56 54.9967L158.309 55V53.9942C163.123 53.9942 167.025 49.9673 167.025 45Z" fill="#FF803B"/>
<path d="M88.737 48.0056C88.4978 48.0056 88.3265 47.9702 88.223 47.8996C88.1261 47.8289 88.0646 47.7357 88.0388 47.6201C88.0129 47.5045 88 47.3856 88 47.2636V42.0023C88 41.8803 88.0129 41.7647 88.0388 41.6554C88.0646 41.5398 88.1293 41.4467 88.2327 41.376C88.3362 41.3053 88.5075 41.27 88.7467 41.27H90.7347C91.0062 41.27 91.2777 41.3182 91.5493 41.4145C91.8273 41.5109 92.0826 41.6619 92.3154 41.8674C92.5546 42.0666 92.7453 42.3139 92.8875 42.6094C93.0362 42.9049 93.1106 43.2518 93.1106 43.6501C93.1106 44.042 93.0362 44.3856 92.8875 44.6811C92.7453 44.9766 92.5546 45.224 92.3154 45.4231C92.0826 45.6158 91.8273 45.7636 91.5493 45.8664C91.2713 45.9627 90.9965 46.0109 90.725 46.0109H89.4837V47.2732C89.4837 47.3953 89.4708 47.5141 89.4449 47.6298C89.4191 47.739 89.3544 47.8289 89.251 47.8996C89.1475 47.9702 88.9762 48.0056 88.737 48.0056ZM89.4837 44.5462H90.7347C90.8769 44.5462 91.0159 44.5173 91.1517 44.4595C91.2939 44.3953 91.4103 44.2957 91.5008 44.1608C91.5978 44.0259 91.6462 43.8524 91.6462 43.6405C91.6462 43.4606 91.6074 43.3032 91.5299 43.1683C91.4523 43.0334 91.3424 42.9274 91.2002 42.8503C91.0644 42.7732 90.906 42.7347 90.725 42.7347H89.4837V44.5462Z" fill="white"/>
<path d="M96.1425 48.0922C95.69 48.0922 95.2989 48.0183 94.9692 47.8705C94.6459 47.7228 94.3808 47.5301 94.174 47.2924C93.9671 47.0483 93.8119 46.7785 93.7085 46.483C93.6115 46.1875 93.563 45.892 93.563 45.5965C93.563 45.1147 93.6729 44.6875 93.8927 44.3149C94.1125 43.9423 94.4164 43.65 94.8043 43.438C95.1922 43.2196 95.6383 43.1104 96.1425 43.1104C96.5175 43.1104 96.8408 43.1714 97.1123 43.2935C97.3903 43.4091 97.6166 43.5633 97.7911 43.756C97.9721 43.9423 98.1047 44.1446 98.1887 44.3631C98.2792 44.5815 98.3245 44.7902 98.3245 44.9894C98.3245 45.3427 98.2372 45.6061 98.0626 45.7795C97.8945 45.9466 97.678 46.0301 97.4129 46.0301H95.1049C95.1178 46.1971 95.176 46.3384 95.2795 46.4541C95.3894 46.5697 95.5251 46.6596 95.6868 46.7239C95.8484 46.7881 96.0197 46.8202 96.2007 46.8202C96.3559 46.8202 96.4917 46.8138 96.608 46.801C96.7244 46.7817 96.8246 46.7592 96.9086 46.7335C96.9927 46.7014 97.0703 46.6725 97.1414 46.6468C97.2125 46.6147 97.2739 46.589 97.3256 46.5697C97.3838 46.5504 97.4388 46.5376 97.4905 46.5311C97.5875 46.5247 97.6747 46.5536 97.7523 46.6179C97.8364 46.6757 97.9107 46.7656 97.9754 46.8877C98.0206 46.9583 98.0497 47.0258 98.0626 47.09C98.082 47.1543 98.0917 47.2185 98.0917 47.2828C98.0917 47.4369 98.0109 47.575 97.8493 47.6971C97.6941 47.8192 97.4711 47.9155 97.1802 47.9862C96.8957 48.0568 96.5498 48.0922 96.1425 48.0922ZM95.1049 45.2399H96.6371C96.7406 45.2399 96.8149 45.2239 96.8602 45.1917C96.9119 45.1532 96.9377 45.0825 96.9377 44.9798C96.9377 44.8641 96.9022 44.7646 96.8311 44.681C96.7599 44.5911 96.663 44.5237 96.5401 44.4787C96.4238 44.4273 96.288 44.4016 96.1328 44.4016C95.9324 44.4016 95.7546 44.4401 95.5995 44.5172C95.4443 44.5943 95.3215 44.6971 95.231 44.8256C95.1469 44.9541 95.1049 45.0922 95.1049 45.2399Z" fill="white"/>
<path d="M101.344 48.0053C101.014 48.0053 100.73 47.9699 100.491 47.8993C100.258 47.8286 100.064 47.7194 99.9089 47.5716C99.7537 47.4239 99.6374 47.2376 99.5598 47.0127C99.4887 46.7815 99.4531 46.5085 99.4531 46.1937V42.2815C99.4531 42.153 99.4628 42.0374 99.4822 41.9346C99.5081 41.8318 99.5727 41.7483 99.6761 41.6841C99.7796 41.6134 99.9477 41.5781 100.18 41.5781C100.413 41.5781 100.581 41.6134 100.684 41.6841C100.788 41.7547 100.849 41.8447 100.869 41.9539C100.895 42.0631 100.908 42.1819 100.908 42.3104V46.1359C100.908 46.2387 100.914 46.3254 100.927 46.396C100.946 46.4603 100.972 46.5085 101.004 46.5406C101.037 46.5727 101.082 46.5952 101.14 46.608C101.198 46.6209 101.27 46.6273 101.354 46.6273C101.496 46.6273 101.622 46.6402 101.732 46.6659C101.842 46.6915 101.926 46.7494 101.984 46.8393C102.049 46.9292 102.081 47.0802 102.081 47.2922C102.081 47.5235 102.045 47.6905 101.974 47.7933C101.903 47.896 101.809 47.9571 101.693 47.9763C101.583 47.9956 101.467 48.0053 101.344 48.0053ZM99.1525 43.2644H100.219L101.557 43.2258C101.68 43.2258 101.796 43.2387 101.906 43.2644C102.016 43.2836 102.107 43.3447 102.178 43.4474C102.249 43.5502 102.285 43.7205 102.285 43.9581C102.285 44.1766 102.249 44.3372 102.178 44.4399C102.113 44.5427 102.026 44.6102 101.916 44.6423C101.806 44.668 101.687 44.6808 101.557 44.6808L100.287 44.6519H99.1137C98.9262 44.6455 98.7937 44.5909 98.7161 44.4881C98.645 44.3789 98.6094 44.199 98.6094 43.9485C98.6094 43.7172 98.6547 43.547 98.7452 43.4378C98.8357 43.3222 98.9715 43.2644 99.1525 43.2644Z" fill="white"/>
<path d="M108.504 48.0826C108.219 48.0826 107.919 48.0377 107.602 47.9477C107.285 47.8578 106.975 47.7229 106.671 47.543C106.367 47.3632 106.089 47.1351 105.837 46.8589C105.591 46.5762 105.394 46.2486 105.246 45.876C105.103 45.497 105.032 45.0666 105.032 44.5848C105.032 44.1223 105.103 43.7111 105.246 43.3514C105.394 42.9852 105.591 42.6672 105.837 42.3974C106.083 42.1276 106.358 41.906 106.661 41.7325C106.965 41.5527 107.279 41.421 107.602 41.3375C107.925 41.2475 108.232 41.2026 108.523 41.2026C108.853 41.2026 109.141 41.2411 109.386 41.3182C109.632 41.3953 109.833 41.4756 109.988 41.5591C110.143 41.6362 110.24 41.6908 110.279 41.7229C110.395 41.7936 110.505 41.8739 110.608 41.9638C110.712 42.0537 110.767 42.1726 110.773 42.3203C110.773 42.3974 110.757 42.4745 110.725 42.5516C110.699 42.6223 110.657 42.6993 110.599 42.7829C110.495 42.9306 110.395 43.0398 110.298 43.1105C110.207 43.1747 110.114 43.2068 110.017 43.2068C109.939 43.2068 109.865 43.1876 109.794 43.149C109.729 43.1105 109.645 43.0591 109.542 42.9948C109.496 42.9627 109.432 42.9242 109.348 42.8792C109.264 42.8278 109.15 42.7829 109.008 42.7443C108.866 42.6993 108.685 42.6769 108.465 42.6769C108.239 42.6769 108.009 42.7186 107.777 42.8021C107.55 42.8792 107.34 42.9981 107.146 43.1587C106.952 43.3193 106.797 43.5248 106.681 43.7754C106.564 44.0195 106.506 44.3053 106.506 44.633C106.506 44.9734 106.564 45.2657 106.681 45.5098C106.804 45.7539 106.962 45.9563 107.156 46.1169C107.35 46.2775 107.56 46.3996 107.786 46.4831C108.019 46.5602 108.245 46.5987 108.465 46.5987C108.659 46.5987 108.824 46.5794 108.96 46.5409C109.102 46.5023 109.222 46.4574 109.319 46.406C109.422 46.3482 109.509 46.2968 109.58 46.2518C109.651 46.2068 109.723 46.1651 109.794 46.1265C109.871 46.088 109.949 46.0687 110.026 46.0687C110.117 46.0687 110.207 46.1041 110.298 46.1747C110.395 46.2454 110.492 46.3578 110.589 46.512C110.647 46.5955 110.692 46.679 110.725 46.7625C110.757 46.8396 110.77 46.9167 110.763 46.9938C110.763 47.1287 110.712 47.2411 110.608 47.331C110.505 47.4145 110.395 47.4916 110.279 47.5623C110.227 47.588 110.127 47.6458 109.978 47.7357C109.829 47.8193 109.632 47.8963 109.386 47.967C109.141 48.0441 108.847 48.0826 108.504 48.0826Z" fill="white"/>
<path d="M115.176 47.9958C114.937 47.9958 114.759 47.9541 114.643 47.8705C114.533 47.787 114.478 47.6843 114.478 47.5622L114.575 47.3984C114.536 47.4626 114.462 47.5429 114.352 47.6393C114.242 47.7292 114.1 47.8127 113.925 47.8898C113.751 47.9605 113.534 47.9958 113.276 47.9958C112.978 47.9958 112.694 47.9316 112.422 47.8031C112.157 47.6746 111.921 47.498 111.714 47.2731C111.507 47.0419 111.343 46.7817 111.22 46.4926C111.103 46.2035 111.045 45.8984 111.045 45.5772C111.045 45.2624 111.103 44.9637 111.22 44.681C111.343 44.392 111.507 44.1382 111.714 43.9198C111.928 43.695 112.167 43.5183 112.432 43.3898C112.697 43.2613 112.978 43.1971 113.276 43.1971C113.515 43.1971 113.718 43.2324 113.886 43.3031C114.055 43.3673 114.194 43.4444 114.303 43.5344C114.42 43.6243 114.507 43.711 114.565 43.7945L114.488 43.6596C114.481 43.5055 114.533 43.3898 114.643 43.3127C114.759 43.2292 114.94 43.1875 115.186 43.1875C115.419 43.1875 115.584 43.2228 115.681 43.2935C115.784 43.3641 115.845 43.4573 115.865 43.5729C115.891 43.6885 115.904 43.8106 115.904 43.9391V47.2635C115.904 47.3855 115.891 47.5044 115.865 47.62C115.845 47.7356 115.784 47.8288 115.681 47.8995C115.584 47.9637 115.415 47.9958 115.176 47.9958ZM113.489 46.5601C113.657 46.5601 113.809 46.5183 113.945 46.4348C114.087 46.3449 114.197 46.226 114.274 46.0783C114.358 45.9305 114.4 45.7667 114.4 45.5868C114.4 45.4005 114.358 45.2367 114.274 45.0954C114.19 44.9476 114.077 44.832 113.935 44.7485C113.793 44.6586 113.638 44.6136 113.469 44.6136C113.282 44.6136 113.114 44.6586 112.965 44.7485C112.823 44.8384 112.707 44.9573 112.616 45.105C112.532 45.2528 112.49 45.4198 112.49 45.6061C112.49 45.7795 112.532 45.9401 112.616 46.0879C112.707 46.2292 112.826 46.3449 112.975 46.4348C113.13 46.5183 113.301 46.5601 113.489 46.5601Z" fill="white"/>
<path d="M117.411 48.0054C117.172 48.0054 117.001 47.9732 116.897 47.909C116.8 47.8383 116.739 47.7452 116.713 47.6296C116.694 47.5139 116.684 47.3951 116.684 47.273V43.9101C116.684 43.7816 116.697 43.6627 116.723 43.5535C116.749 43.4443 116.81 43.3576 116.907 43.2934C117.01 43.2227 117.182 43.1874 117.421 43.1874C117.647 43.1874 117.809 43.2195 117.906 43.2837C118.009 43.3415 118.074 43.4122 118.1 43.4957C118.126 43.5728 118.139 43.6403 118.139 43.6981L118.022 43.7559C118.035 43.7302 118.067 43.6852 118.119 43.621C118.177 43.5503 118.255 43.4797 118.352 43.409C118.449 43.3319 118.565 43.2677 118.701 43.2163C118.843 43.1649 119.005 43.1392 119.186 43.1392C119.257 43.1392 119.335 43.1456 119.419 43.1585C119.509 43.1649 119.6 43.1842 119.69 43.2163C119.787 43.242 119.874 43.2805 119.952 43.3319C120.03 43.3769 120.091 43.4347 120.136 43.5054C120.188 43.576 120.214 43.6627 120.214 43.7655C120.214 44.0289 120.152 44.2537 120.03 44.44C119.907 44.6199 119.752 44.7099 119.564 44.7099C119.454 44.7099 119.377 44.7002 119.331 44.6809C119.286 44.6617 119.247 44.6424 119.215 44.6231C119.189 44.6039 119.157 44.5878 119.118 44.5749C119.079 44.5557 119.008 44.546 118.905 44.546C118.808 44.546 118.714 44.5589 118.623 44.5846C118.539 44.6103 118.459 44.652 118.381 44.7099C118.31 44.7612 118.252 44.8287 118.206 44.9122C118.168 44.9893 118.148 45.076 118.148 45.1724V47.2923C118.148 47.4143 118.135 47.5332 118.109 47.6488C118.09 47.758 118.029 47.8448 117.925 47.909C117.822 47.9732 117.65 48.0054 117.411 48.0054Z" fill="white"/>
<path d="M122.896 48.0922C122.443 48.0922 122.052 48.0183 121.723 47.8705C121.399 47.7228 121.134 47.5301 120.927 47.2924C120.72 47.0483 120.565 46.7785 120.462 46.483C120.365 46.1875 120.316 45.892 120.316 45.5965C120.316 45.1147 120.426 44.6875 120.646 44.3149C120.866 43.9423 121.17 43.65 121.558 43.438C121.946 43.2196 122.392 43.1104 122.896 43.1104C123.271 43.1104 123.594 43.1714 123.866 43.2935C124.144 43.4091 124.37 43.5633 124.545 43.756C124.726 43.9423 124.858 44.1446 124.942 44.3631C125.033 44.5815 125.078 44.7902 125.078 44.9894C125.078 45.3427 124.991 45.6061 124.816 45.7795C124.648 45.9466 124.431 46.0301 124.166 46.0301H121.858C121.871 46.1971 121.929 46.3384 122.033 46.4541C122.143 46.5697 122.279 46.6596 122.44 46.7239C122.602 46.7881 122.773 46.8202 122.954 46.8202C123.109 46.8202 123.245 46.8138 123.361 46.801C123.478 46.7817 123.578 46.7592 123.662 46.7335C123.746 46.7014 123.824 46.6725 123.895 46.6468C123.966 46.6147 124.027 46.589 124.079 46.5697C124.137 46.5504 124.192 46.5376 124.244 46.5311C124.341 46.5247 124.428 46.5536 124.506 46.6179C124.59 46.6757 124.664 46.7656 124.729 46.8877C124.774 46.9583 124.803 47.0258 124.816 47.09C124.835 47.1543 124.845 47.2185 124.845 47.2828C124.845 47.4369 124.764 47.575 124.603 47.6971C124.448 47.8192 124.224 47.9155 123.934 47.9862C123.649 48.0568 123.303 48.0922 122.896 48.0922ZM121.858 45.2399H123.391C123.494 45.2399 123.568 45.2239 123.614 45.1917C123.665 45.1532 123.691 45.0825 123.691 44.9798C123.691 44.8641 123.656 44.7646 123.584 44.681C123.513 44.5911 123.416 44.5237 123.294 44.4787C123.177 44.4273 123.041 44.4016 122.886 44.4016C122.686 44.4016 122.508 44.4401 122.353 44.5172C122.198 44.5943 122.075 44.6971 121.984 44.8256C121.9 44.9541 121.858 45.0922 121.858 45.2399Z" fill="white"/>
<path d="M130.133 48.0632C129.642 48.0632 129.225 47.9925 128.882 47.8512C128.54 47.7034 128.278 47.485 128.097 47.1959C127.922 46.9069 127.835 46.5503 127.835 46.1263C127.835 45.9015 127.877 45.6863 127.961 45.4807C128.045 45.2687 128.168 45.06 128.33 44.8544C128.491 44.6488 128.692 44.4465 128.931 44.2473C128.853 44.0739 128.782 43.9036 128.718 43.7366C128.659 43.5632 128.614 43.3961 128.582 43.2355C128.556 43.0685 128.543 42.9079 128.543 42.7537C128.543 42.3747 128.621 42.0567 128.776 41.7998C128.937 41.5364 129.167 41.3373 129.464 41.2024C129.768 41.0675 130.137 41 130.57 41C130.938 41 131.255 41.0642 131.52 41.1927C131.785 41.3212 131.989 41.5043 132.131 41.742C132.28 41.9797 132.354 42.2655 132.354 42.5996C132.354 42.7987 132.309 42.9882 132.218 43.1681C132.134 43.3415 132.015 43.5118 131.859 43.6788C131.704 43.8394 131.53 43.9968 131.336 44.151C131.142 44.3051 130.938 44.4561 130.725 44.6039C130.854 44.7773 130.983 44.9443 131.113 45.1049C131.249 45.2591 131.388 45.4036 131.53 45.5385C131.672 45.6734 131.811 45.7923 131.947 45.8951C132.083 45.7537 132.183 45.6188 132.247 45.4904C132.312 45.3555 132.357 45.2173 132.383 45.076C132.415 44.9475 132.493 44.8512 132.616 44.7869C132.739 44.7163 132.917 44.6809 133.149 44.6809C133.35 44.6809 133.492 44.7099 133.576 44.7677C133.666 44.8191 133.725 44.8833 133.75 44.9604C133.776 45.031 133.786 45.0985 133.78 45.1627C133.767 45.3876 133.705 45.6124 133.595 45.8373C133.485 46.0621 133.337 46.2869 133.149 46.5118C133.188 46.5246 133.224 46.5343 133.256 46.5407C133.295 46.5471 133.333 46.5535 133.372 46.56C133.418 46.56 133.469 46.56 133.527 46.56C133.754 46.56 133.922 46.6178 134.032 46.7334C134.142 46.8426 134.197 47.0096 134.197 47.2345C134.197 47.5171 134.148 47.7098 134.051 47.8126C133.954 47.9154 133.776 47.9668 133.518 47.9668C133.343 47.9668 133.165 47.954 132.984 47.9283C132.803 47.9026 132.622 47.8608 132.441 47.803C132.267 47.7388 132.092 47.6617 131.918 47.5717C131.73 47.6745 131.536 47.7645 131.336 47.8415C131.142 47.9122 130.945 47.9668 130.744 48.0054C130.544 48.0439 130.34 48.0632 130.133 48.0632ZM130.182 46.7816C130.279 46.7816 130.373 46.7719 130.463 46.7527C130.554 46.7334 130.631 46.7109 130.696 46.6852C130.618 46.6081 130.534 46.5246 130.444 46.4347C130.353 46.3383 130.263 46.2388 130.172 46.136C130.082 46.0332 129.991 45.9272 129.901 45.818C129.81 45.7088 129.723 45.5964 129.639 45.4807C129.581 45.545 129.532 45.606 129.493 45.6638C129.455 45.7152 129.422 45.7666 129.396 45.818C129.37 45.863 129.351 45.9111 129.338 45.9625C129.325 46.0139 129.319 46.0653 129.319 46.1167C129.319 46.258 129.351 46.3801 129.416 46.4829C129.487 46.5792 129.587 46.6531 129.716 46.7045C129.846 46.7559 130.001 46.7816 130.182 46.7816ZM130.085 43.4764C130.24 43.3672 130.376 43.2709 130.492 43.1874C130.609 43.0974 130.705 43.0171 130.783 42.9465C130.861 42.8758 130.919 42.8116 130.958 42.7537C130.996 42.6895 131.016 42.6317 131.016 42.5803C131.016 42.4454 130.971 42.3394 130.88 42.2623C130.796 42.1852 130.68 42.1467 130.531 42.1467C130.389 42.1467 130.269 42.166 130.172 42.2045C130.075 42.243 130.001 42.3009 129.949 42.3779C129.904 42.455 129.881 42.5514 129.881 42.667C129.881 42.7441 129.888 42.8244 129.901 42.9079C129.92 42.985 129.943 43.0717 129.968 43.1681C130.001 43.2645 130.04 43.3672 130.085 43.4764Z" fill="white"/>
<path d="M139.417 48.1015C139.075 48.1015 138.774 48.0598 138.515 47.9762C138.263 47.8927 138.047 47.7932 137.866 47.6775C137.691 47.5555 137.552 47.4366 137.449 47.321C137.345 47.2054 137.274 47.1186 137.235 47.0608C137.125 46.9195 137.058 46.7974 137.032 46.6947C137.006 46.5855 137.019 46.4762 137.07 46.367C137.129 46.2578 137.226 46.139 137.361 46.0105C137.497 45.8949 137.623 45.8338 137.74 45.8274C137.862 45.8146 137.982 45.8435 138.098 45.9141C138.215 45.9848 138.328 46.0844 138.438 46.2129C138.593 46.3992 138.745 46.5308 138.894 46.6079C139.049 46.6786 139.21 46.7139 139.378 46.7139C139.592 46.7139 139.773 46.6882 139.922 46.6368C140.07 46.5855 140.183 46.5052 140.261 46.3959C140.339 46.2803 140.377 46.1358 140.377 45.9623C140.377 45.821 140.322 45.7086 140.212 45.6251C140.109 45.5351 139.967 45.458 139.786 45.3938C139.611 45.3296 139.414 45.2685 139.194 45.2107C138.981 45.1465 138.768 45.0726 138.554 44.9891C138.406 44.9377 138.263 44.8735 138.128 44.7964C137.992 44.7193 137.862 44.6326 137.74 44.5362C137.617 44.4398 137.51 44.3242 137.42 44.1893C137.336 44.0544 137.268 43.9002 137.216 43.7268C137.171 43.5533 137.148 43.3542 137.148 43.1294C137.148 42.7503 137.242 42.4131 137.429 42.1176C137.617 41.8221 137.875 41.5908 138.205 41.4238C138.541 41.2503 138.926 41.1636 139.359 41.1636C139.65 41.1636 139.902 41.1893 140.115 41.2407C140.335 41.2921 140.52 41.3531 140.668 41.4238C140.817 41.4944 140.933 41.5651 141.017 41.6358C141.108 41.7 141.169 41.7514 141.202 41.7899C141.383 41.957 141.483 42.1015 141.502 42.2236C141.522 42.3392 141.454 42.503 141.299 42.715C141.137 42.9398 140.975 43.0651 140.814 43.0908C140.659 43.1165 140.481 43.0619 140.28 42.927C140.203 42.8563 140.125 42.7921 140.048 42.7343C139.97 42.6765 139.876 42.6315 139.766 42.5994C139.663 42.5608 139.524 42.5416 139.349 42.5416C139.246 42.5416 139.149 42.5576 139.058 42.5897C138.968 42.6154 138.89 42.654 138.826 42.7054C138.761 42.7568 138.709 42.821 138.671 42.8981C138.632 42.9688 138.612 43.0491 138.612 43.139C138.612 43.2867 138.661 43.4056 138.758 43.4955C138.861 43.5855 138.994 43.6593 139.155 43.7171C139.324 43.7685 139.508 43.8199 139.708 43.8713C139.915 43.9163 140.125 43.9709 140.339 44.0351C140.532 44.0994 140.72 44.1797 140.901 44.276C141.082 44.366 141.244 44.4816 141.386 44.6229C141.528 44.7643 141.641 44.9409 141.725 45.1529C141.816 45.3649 141.861 45.6251 141.861 45.9334C141.861 46.3189 141.787 46.6497 141.638 46.9259C141.489 47.2022 141.292 47.427 141.046 47.6004C140.801 47.7739 140.536 47.8992 140.251 47.9762C139.967 48.0598 139.689 48.1015 139.417 48.1015Z" fill="white"/>
<path d="M143.169 48.0054C142.936 48.0054 142.768 47.9732 142.665 47.909C142.561 47.8383 142.497 47.7484 142.471 47.6392C142.452 47.5236 142.442 47.4015 142.442 47.273V41.7227C142.442 41.5942 142.455 41.4754 142.481 41.3662C142.507 41.257 142.571 41.1702 142.675 41.106C142.778 41.0353 142.946 41 143.179 41C143.418 41 143.586 41.0353 143.683 41.106C143.787 41.1767 143.848 41.2666 143.867 41.3758C143.893 41.485 143.906 41.6039 143.906 41.7323V43.6981C144.023 43.576 144.171 43.4604 144.352 43.3512C144.54 43.242 144.76 43.1874 145.012 43.1874C145.413 43.1874 145.771 43.2901 146.088 43.4957C146.411 43.6949 146.667 43.9711 146.854 44.3244C147.048 44.6777 147.145 45.0824 147.145 45.5385V47.2827C147.145 47.4111 147.132 47.53 147.106 47.6392C147.081 47.7484 147.019 47.8383 146.922 47.909C146.825 47.9732 146.654 48.0054 146.408 48.0054C146.182 48.0054 146.014 47.9732 145.904 47.909C145.8 47.8383 145.736 47.7484 145.71 47.6392C145.691 47.5236 145.681 47.4015 145.681 47.273V45.5289C145.681 45.3426 145.649 45.1852 145.584 45.0567C145.519 44.9218 145.422 44.8158 145.293 44.7388C145.17 44.6617 145.018 44.6231 144.837 44.6231C144.598 44.6231 144.388 44.697 144.207 44.8448C144.032 44.9861 143.932 45.1595 143.906 45.3651V47.2827C143.906 47.4111 143.893 47.53 143.867 47.6392C143.842 47.7484 143.777 47.8383 143.673 47.909C143.576 47.9732 143.408 48.0054 143.169 48.0054Z" fill="white"/>
<path d="M150.159 48.0822C149.855 48.0822 149.551 48.0244 149.247 47.9088C148.95 47.7867 148.678 47.6165 148.433 47.3981C148.187 47.1797 147.993 46.9195 147.851 46.6176C147.708 46.3092 147.637 45.9688 147.637 45.5962C147.637 45.2493 147.702 44.9281 147.831 44.6326C147.961 44.3306 148.142 44.064 148.374 43.8328C148.607 43.6015 148.872 43.4216 149.17 43.2932C149.473 43.1583 149.797 43.0908 150.139 43.0908C150.605 43.0908 151.025 43.2032 151.4 43.4281C151.781 43.6465 152.085 43.9452 152.312 44.3242C152.538 44.7032 152.651 45.124 152.651 45.5865C152.651 45.9784 152.577 46.3285 152.428 46.6368C152.286 46.9388 152.092 47.1989 151.846 47.4174C151.607 47.6358 151.339 47.8028 151.041 47.9184C150.75 48.0276 150.456 48.0822 150.159 48.0822ZM150.139 46.6272C150.294 46.6272 150.453 46.5887 150.614 46.5116C150.776 46.4345 150.912 46.3189 151.022 46.1647C151.132 46.0105 151.187 45.8146 151.187 45.5769C151.187 45.3713 151.141 45.1914 151.051 45.0373C150.96 44.8831 150.834 44.7643 150.673 44.6807C150.518 44.5908 150.336 44.5458 150.13 44.5458C149.936 44.5458 149.761 44.5908 149.606 44.6807C149.457 44.7707 149.334 44.8959 149.237 45.0565C149.147 45.2107 149.102 45.3874 149.102 45.5865C149.102 45.8178 149.153 46.0137 149.257 46.1743C149.367 46.3285 149.503 46.4441 149.664 46.5212C149.826 46.5919 149.984 46.6272 150.139 46.6272Z" fill="white"/>
<path d="M155.789 47.9187C155.472 47.9187 155.191 47.8577 154.945 47.7356C154.706 47.6072 154.506 47.4369 154.344 47.2249C154.189 47.0065 154.069 46.756 153.985 46.4733C153.908 46.1907 153.872 45.8855 153.879 45.5579C153.879 45.2431 153.921 44.9444 154.005 44.6618C154.089 44.3727 154.208 44.1189 154.363 43.9005C154.525 43.6757 154.722 43.5022 154.955 43.3802C155.194 43.2517 155.472 43.1875 155.789 43.1875C156.073 43.1875 156.348 43.2517 156.613 43.3802C156.885 43.5087 157.124 43.6853 157.331 43.9102C157.538 44.1286 157.699 44.3823 157.816 44.6714C157.939 44.9605 158 45.2656 158 45.5868C158 45.908 157.939 46.2132 157.816 46.5022C157.699 46.7849 157.538 47.0322 157.331 47.2442C157.124 47.4562 156.888 47.6232 156.623 47.7453C156.358 47.8609 156.08 47.9187 155.789 47.9187ZM153.917 50.0001C153.685 50.0001 153.517 49.9648 153.413 49.8941C153.316 49.8299 153.255 49.7431 153.229 49.6339C153.209 49.5311 153.2 49.4187 153.2 49.2967V43.9102C153.2 43.7817 153.209 43.6661 153.229 43.5633C153.248 43.4541 153.306 43.3641 153.403 43.2935C153.507 43.2228 153.675 43.1875 153.908 43.1875C154.108 43.1875 154.266 43.2164 154.383 43.2742C154.506 43.332 154.593 43.4219 154.645 43.544V49.287C154.651 49.4091 154.641 49.5247 154.616 49.6339C154.59 49.7431 154.525 49.8299 154.422 49.8941C154.325 49.9648 154.157 50.0001 153.917 50.0001ZM155.585 46.5601C155.766 46.5601 155.928 46.5183 156.07 46.4348C156.212 46.3449 156.326 46.226 156.41 46.0783C156.5 45.9305 156.545 45.7667 156.545 45.5868C156.545 45.4005 156.503 45.2367 156.419 45.0954C156.335 44.9476 156.222 44.832 156.08 44.7485C155.938 44.665 155.776 44.6232 155.595 44.6232C155.42 44.6232 155.259 44.6682 155.11 44.7581C154.968 44.8416 154.855 44.9573 154.771 45.105C154.693 45.2464 154.654 45.407 154.654 45.5868C154.654 45.7667 154.696 45.9305 154.78 46.0783C154.864 46.226 154.978 46.3449 155.12 46.4348C155.262 46.5183 155.417 46.5601 155.585 46.5601Z" fill="white"/>
<path d="M134.202 1.97253C134.183 1.98512 134.163 1.9998 134.145 2.01319C133.45 2.66696 133.582 3.81089 134.019 4.61269C134.382 5.36255 135.258 6.05876 136.092 5.73794C136.212 5.68984 136.317 5.60825 136.402 5.51194C137.083 4.63237 136.767 3.29518 136.051 2.48325C135.634 1.92841 134.8 1.57297 134.202 1.97253ZM130.884 4.18005C130.402 4.51146 130.358 5.27442 130.598 5.80832C131.064 6.87283 132.268 7.79043 133.432 7.46699C133.536 7.42896 133.63 7.37017 133.712 7.29635C134.29 6.75951 134.069 5.82412 133.641 5.23145C133.092 4.43728 132.075 3.76813 131.118 4.0669C131.03 4.09517 130.952 4.13315 130.884 4.18005ZM138.152 3.34449C137.338 3.94719 137.332 5.20088 137.786 6.07271C138.061 6.73511 138.883 7.32694 139.565 6.952C140.463 6.35114 140.423 4.9471 139.883 4.0671C139.565 3.45887 138.785 2.97767 138.152 3.34449ZM130.856 8.35943C130.493 8.59075 130.285 9.04499 130.416 9.50081C130.768 10.7204 132.245 11.5965 133.425 11.1345C133.909 10.9301 134.064 10.3377 133.899 9.85311C133.544 8.8182 132.399 8.09169 131.343 8.20426C131.164 8.21292 130.997 8.26864 130.856 8.35943ZM135.854 7.71077C135.147 8.17186 134.673 9.0097 134.579 9.86048C134.508 10.8263 134.595 11.8394 134.971 12.7557C135.162 13.4664 136.042 13.8562 136.65 13.4685C137.391 13.0167 137.677 12.0933 138.374 11.5853C138.924 11.0897 139.692 11.0627 140.386 10.9209C140.992 10.8237 141.589 10.3225 141.485 9.64283C141.323 8.98725 140.672 8.59884 140.131 8.27437C139.156 7.81109 138.122 7.32936 137.038 7.34825C136.599 7.35047 136.199 7.48551 135.854 7.71077Z" fill="#FF803B"/>
<path d="M66.8944 27.1485C71.9114 40.3433 59.6518 61.3147 34.2302 53.1764C20.7029 48.8477 -1.89453 58.6082 0.126921 39.9557C1.94588 23.1616 15.1207 17.5377 21.6245 14.9828C28.1262 12.4297 32.3989 -1.25692 45.6726 0.0934739C62.7986 1.83932 61.8791 13.9553 66.8944 27.1485Z" fill="#FF803B"/>
<mask id="mask0_5_4919" style="mask-type:alpha" maskUnits="userSpaceOnUse" x="0" y="0" width="68" height="55">
<path d="M66.8944 27.1485C71.9114 40.3433 59.6518 61.3147 34.2302 53.1764C20.7029 48.8477 -1.89453 58.6082 0.126921 39.9557C1.94588 23.1616 15.1207 17.5377 21.6245 14.9828C28.1262 12.4297 32.3989 -1.25692 45.6726 0.0934739C62.7986 1.83932 61.8791 13.9553 66.8944 27.1485Z" fill="#17235B"/>
</mask>
<g mask="url(#mask0_5_4919)">
<path d="M35.0924 16.3384C34.7531 16.4341 34.025 17.4053 34.6145 17.8351C34.8443 18.003 34.8609 19.6315 36.1816 20.2039C39.2684 21.54 42.1016 20.6191 43.0301 21.3468C43.4261 21.6556 41.5159 27.9111 42.2056 30.9802C43.1341 35.1233 44.7617 41.791 44.5136 43.6506C43.3604 47.803 43.7782 51.0599 42.9482 53.0296C42.7312 53.5421 40.263 53.6417 40.0967 54.0243C39.635 55.0929 39.9982 55.2338 40.4727 55.2338C41.7716 55.2338 43.7326 55.2338 45.0938 55.2338C46.4549 55.2338 48.3775 42.7225 48.3775 42.7225C48.3775 42.7225 55.1659 48.8518 56.0198 47.2829C57.629 43.7299 60.5351 42.069 60.8889 42.0563C60.825 42.1626 56.7513 44.4665 56.3297 48.2616C55.8407 52.6486 61.3485 52.1432 61.3485 52.1432C61.3485 52.1432 58.818 52.2858 57.0156 52.3888C55.2132 52.4917 53.303 54.9761 55.4063 55.0913C57.5118 55.2052 68.1548 55.344 70.1362 55.0913C72.1155 54.8386 73.1262 54.1703 71.8273 52.5385C72.6317 52.2335 75.7058 52.0491 76.9079 49.1842C78.4494 45.5157 76.2821 41.5151 76.2821 41.5151C76.2821 41.5151 76.6781 45.6675 75.2096 47.9659C74.221 49.5184 73.0239 49.4968 71.9092 49.4357C73.7243 37.5959 55.3808 26.4839 54.2515 23.7611C52.1481 18.6932 52.3962 12.8132 50.4549 12.407C50.6463 10.0761 47.4026 6.80664 47.4026 6.80664C47.4026 6.80664 47.1127 9.41379 46.7406 10.9376C45.3176 10.5765 43.0902 11.5278 42.2853 12.0716C41.4809 12.6149 41.8948 13.9147 40.2037 14.5884C39.086 15.0327 36.4297 15.9574 35.0924 16.3384Z" fill="white"/>
<path d="M21.0648 36.592C23.3872 35.5411 26.6365 29.0435 27.1016 28.5182C27.565 27.993 27.4993 26.2216 28.03 26.09C28.5608 25.9583 28.5608 25.4327 28.4934 25.1062C28.4278 24.7775 28.4278 24.516 28.5608 24.3839C28.6938 24.2523 29.0242 23.4651 28.5608 23.0715C28.0957 22.6779 27.3659 23.3335 26.9025 24.516C26.4374 25.6968 26.8351 25.8934 25.5763 27.0742C24.3157 28.2567 20.7344 31.2102 20.7344 31.2102C20.7344 31.2102 20.7344 31.2102 20.6014 30.685C20.4684 30.1597 20.8 29.5042 21.3329 28.7153C21.8637 27.928 21.1321 27.0742 21.0648 26.8122C20.9991 26.5502 20.005 26.09 20.1363 25.8284C20.2693 25.5647 20.005 23.9076 20.005 23.9076C20.005 23.9076 19.1422 25.6318 19.0087 25.4331C18.8774 25.2365 16.1572 25.6318 16.1572 25.6318C16.1572 25.6318 14.831 23.4655 13.9682 23.9907C13.1071 24.516 13.7035 27.4028 14.1012 29.2409C14.4989 31.079 13.7691 33.1137 12.5086 34.8214C11.2497 36.5274 8.72862 34.7547 5.67804 39.3493C2.62575 43.9439 3.82066 47.7517 3.489 49.5893C3.15691 51.4274 -0.75607 50.2445 -3.741 50.1795C-6.72594 50.1146 -7.65441 51.624 -7.38968 52.4108C-7.12325 53.198 -2.74688 53.3967 -2.28136 53.0588C-1.81798 52.7213 -2.28136 52.3458 -2.28136 52.3458L3.75373 52.6078C3.75373 52.6078 6.87167 53.0681 10.0548 53.0592C13.238 53.0504 13.1727 52.5428 13.1727 52.5428C13.1727 52.5428 14.8967 52.5428 15.4935 52.4779C16.092 52.4112 15.8256 51.559 15.6265 51.0984C15.4278 50.6381 13.5705 50.9667 13.5705 50.9667V50.4415C13.5705 50.4415 15.1631 49.5227 15.6939 48.6705C16.2229 47.8166 15.6265 44.7311 16.0916 45.1264C16.555 45.52 18.611 52.9364 18.8097 53.0014C19.0083 53.0681 21.3964 53.198 21.3308 52.5428C21.2651 51.8856 20.4023 51.624 19.6725 50.9667C18.9427 50.3116 19.4738 42.6964 20.0046 42.1058C20.5353 41.5152 21.0648 36.592 21.0648 36.592Z" fill="white"/>
<path d="M20.8697 50.4934C18.0766 48.7603 18.2117 51.7733 19.578 52.5985C20.9443 53.4237 21.1195 51.8151 21.4533 52.474C21.7871 53.1347 22.8289 54.4564 22.8289 54.4564C22.8289 54.4564 23.6227 54.2488 23.9565 54.6353C24.2886 55.0217 27.5834 54.2488 27.7915 54.3319C28.0012 54.415 28.627 53.6295 28.627 53.6295C28.627 53.6295 28.627 54.2488 29.0009 54.4564C29.3769 54.6623 32.3375 54.6353 32.3375 54.6353C32.3375 54.6353 31.8779 54.3733 32.8375 54.5792C33.7971 54.785 34.7567 54.3733 34.7567 53.9599C34.7567 53.5481 33.8794 53.0933 33.6292 52.4344C33.3794 51.7737 33.9212 50.1234 33.9212 50.1234C37.7157 47.0686 36.632 43.1077 36.632 43.1077L37.0916 42.4884C38.0494 42.8187 39.3428 41.3747 39.6766 40.7554C40.0087 40.136 39.8425 39.6416 38.801 38.114C37.7574 36.5885 35.964 36.0507 35.7982 35.6803C35.6323 35.3082 34.255 34.9778 34.255 34.9778C34.255 34.9778 33.7677 32.1433 32.2957 30.2732C28.459 25.404 31.6699 34.2362 31.6699 34.2362C31.6699 34.2362 29.9605 28.9953 29.0426 29.0367C28.1248 29.078 29.0844 31.2646 29.2924 32.9145C29.5022 34.5665 31.0437 35.9692 31.4197 36.9172C31.7957 37.8668 30.5441 39.5998 30.5441 39.5998C30.5441 39.5998 27.4172 37.4947 23.8303 41.7556C20.2439 46.0161 20.8697 50.4934 20.8697 50.4934Z" fill="white"/>
</g>
</g>
</g>
</g>
<defs>
<clipPath id="clip0_5_4919">
<rect width="168" height="55" fill="white"/>
</clipPath>
<clipPath id="clip1_5_4919">
<rect width="168" height="55" fill="white"/>
</clipPath>
<clipPath id="clip2_5_4919">
<rect width="168" height="55" fill="white"/>
</clipPath>
</defs>
</svg>
