<svg width="168" height="55" viewBox="0 0 168 55" fill="none" xmlns="http://www.w3.org/2000/svg">
<g clip-path="url(#clip0_5_2219)">
<g clip-path="url(#clip1_5_2219)">
<g clip-path="url(#clip2_5_2219)">
<path d="M80.5719 30.6942C79.7489 30.6942 79.1545 30.5696 78.7887 30.3206C78.4229 30.0488 78.1943 29.7091 78.1029 29.3015C78.0343 28.8713 78 28.4297 78 27.9768V9.56645C78 9.11355 78.0343 8.69462 78.1029 8.30965C78.1943 7.90204 78.4229 7.57369 78.7887 7.3246C79.1545 7.05286 79.7603 6.91699 80.6062 6.91699H89.1447C90.4935 6.91699 91.6938 7.23402 92.7454 7.86808C93.797 8.50213 94.6314 9.35132 95.2486 10.4157C95.8659 11.48 96.1631 12.6349 96.1402 13.8803C96.1631 14.3785 96.1174 14.8654 96.0031 15.3409C95.8887 15.8165 95.7173 16.2807 95.4887 16.7336C95.2829 17.1638 95.02 17.5601 94.7 17.9225C95.1801 18.3754 95.5801 18.8962 95.9002 19.485C96.2202 20.0511 96.4603 20.6512 96.6203 21.2852C96.8032 21.9193 96.8946 22.5647 96.8946 23.2214C96.8718 24.263 96.666 25.2481 96.2774 26.1765C95.9116 27.0823 95.3858 27.8749 94.7 28.5542C94.0141 29.211 93.2254 29.7318 92.3339 30.1167C91.4423 30.5017 90.4935 30.6942 89.4877 30.6942H80.5719ZM83.2123 25.5651H89.1447C89.5334 25.5651 89.922 25.4972 90.3107 25.3613C90.7222 25.2028 91.0536 24.9311 91.3051 24.5461C91.5794 24.1385 91.7166 23.5724 91.7166 22.8477C91.7166 22.3722 91.6595 21.9759 91.5452 21.6589C91.4309 21.3418 91.2708 21.1041 91.0651 20.9456C90.8593 20.7644 90.6307 20.6398 90.3792 20.5719C90.1278 20.504 89.8649 20.4587 89.5905 20.436C89.3162 20.4134 89.0533 20.4021 88.8018 20.4021H87.8074C87.0301 20.4021 86.4814 20.2436 86.1614 19.9265C85.8413 19.5869 85.6813 19.0094 85.6813 18.1942C85.6813 17.4016 85.8528 16.8468 86.1957 16.5298C86.5615 16.2128 87.133 16.0542 87.9103 16.0542H88.9047C89.1333 16.0542 89.3734 16.0429 89.6248 16.0203C89.8763 15.9976 90.0935 15.9297 90.2764 15.8165C90.4821 15.7033 90.6421 15.5221 90.7565 15.273C90.8936 15.0013 90.9622 14.6389 90.9622 14.186C90.9622 13.4161 90.7679 12.8726 90.3792 12.5556C89.9906 12.2159 89.3048 12.0461 88.3218 12.0461H83.2123V25.5651Z" fill="white"/>
<path d="M113.123 30.6606C112.278 30.6606 111.649 30.5134 111.237 30.219C110.849 29.9247 110.654 29.5623 110.654 29.1321L110.997 28.5546C110.86 28.7811 110.597 29.0642 110.209 29.4038C109.82 29.7209 109.317 30.0152 108.7 30.287C108.083 30.5361 107.317 30.6606 106.402 30.6606C105.351 30.6606 104.345 30.4342 103.385 29.9813C102.447 29.5284 101.613 28.9056 100.881 28.1131C100.15 27.2979 99.5667 26.3807 99.1323 25.3617C98.7208 24.3427 98.5151 23.2671 98.5151 22.1348C98.5151 21.0252 98.7208 19.9722 99.1323 18.9758C99.5667 17.9568 100.15 17.0623 100.881 16.2924C101.636 15.4998 102.482 14.8771 103.419 14.4242C104.356 13.9713 105.351 13.7449 106.402 13.7449C107.248 13.7449 107.968 13.8694 108.563 14.1185C109.157 14.345 109.648 14.6167 110.037 14.9337C110.449 15.2508 110.757 15.5565 110.963 15.8508L110.689 15.3753C110.666 14.8318 110.849 14.4242 111.237 14.1525C111.649 13.8581 112.289 13.7109 113.158 13.7109C113.981 13.7109 114.564 13.8354 114.907 14.0845C115.272 14.3336 115.489 14.662 115.558 15.0696C115.65 15.4772 115.695 15.9075 115.695 16.3604V28.0791C115.695 28.5094 115.65 28.9283 115.558 29.3359C115.489 29.7435 115.272 30.0719 114.907 30.321C114.564 30.5474 113.969 30.6606 113.123 30.6606ZM107.157 25.5995C107.751 25.5995 108.288 25.4523 108.768 25.1579C109.271 24.8409 109.66 24.4219 109.934 23.9011C110.231 23.3803 110.38 22.8028 110.38 22.1688C110.38 21.5121 110.231 20.9346 109.934 20.4364C109.637 19.9156 109.237 19.508 108.734 19.2136C108.231 18.8966 107.682 18.7381 107.088 18.7381C106.425 18.7381 105.831 18.8966 105.305 19.2136C104.802 19.5306 104.39 19.9496 104.07 20.4704C103.773 20.9912 103.625 21.58 103.625 22.2367C103.625 22.8481 103.773 23.4142 104.07 23.9351C104.39 24.4333 104.813 24.8409 105.339 25.1579C105.888 25.4523 106.494 25.5995 107.157 25.5995Z" fill="white"/>
<path d="M127.645 30.6603C126.525 30.6603 125.53 30.4339 124.662 29.981C123.816 29.5054 123.107 28.8714 122.536 28.0788C121.987 27.2862 121.564 26.3804 121.267 25.3614C120.992 24.3424 120.867 23.2554 120.89 22.1005C120.89 20.9909 121.038 19.9266 121.335 18.9076C121.633 17.8886 122.056 16.9941 122.604 16.2242C123.176 15.4543 123.873 14.8542 124.696 14.4239C125.542 13.971 126.525 13.7446 127.645 13.7446C128.651 13.7446 129.623 13.971 130.56 14.4239C131.52 14.8768 132.366 15.4995 133.097 16.2921C133.829 17.062 134.4 17.9565 134.812 18.9755C135.246 19.9719 135.463 21.0249 135.463 22.1345C135.463 23.2894 135.246 24.3877 134.812 25.4293C134.4 26.4484 133.829 27.3542 133.097 28.1467C132.366 28.9393 131.531 29.562 130.594 30.0149C129.657 30.4452 128.674 30.6603 127.645 30.6603ZM126.925 25.6332C127.565 25.6332 128.137 25.486 128.639 25.1916C129.142 24.8745 129.542 24.4556 129.84 23.9348C130.16 23.4139 130.32 22.8365 130.32 22.2024C130.32 21.5457 130.171 20.9683 129.874 20.4701C129.577 19.9493 129.177 19.5417 128.674 19.2473C128.171 18.9529 127.599 18.8057 126.959 18.8057C126.342 18.8057 125.77 18.9529 125.245 19.2473C124.742 19.5417 124.342 19.9493 124.044 20.4701C123.77 20.9683 123.633 21.5457 123.633 22.2024C123.633 22.8365 123.782 23.4139 124.079 23.9348C124.376 24.4556 124.776 24.8745 125.279 25.1916C125.782 25.486 126.331 25.6332 126.925 25.6332ZM120.958 30.6943C120.135 30.6943 119.541 30.5697 119.175 30.3207C118.809 30.0716 118.581 29.7545 118.489 29.3696C118.421 28.962 118.386 28.543 118.386 28.1128V8.58152C118.386 8.10598 118.432 7.67573 118.523 7.29076C118.615 6.9058 118.832 6.60009 119.175 6.37364C119.541 6.12455 120.147 6 120.992 6C121.815 6 122.398 6.12455 122.741 6.37364C123.084 6.62274 123.29 6.95109 123.359 7.3587C123.427 7.74366 123.45 8.15127 123.427 8.58152V29.1658C123.313 29.6866 123.073 30.0716 122.707 30.3207C122.341 30.5697 121.758 30.6943 120.958 30.6943Z" fill="white"/>
<path d="M146.282 30.9996C144.681 30.9996 143.298 30.7392 142.132 30.2183C140.989 29.6975 140.052 29.0182 139.32 28.1803C138.589 27.3198 138.04 26.3687 137.674 25.327C137.332 24.2854 137.16 23.2437 137.16 22.202C137.16 20.5037 137.549 18.9978 138.326 17.6844C139.103 16.371 140.178 15.3406 141.549 14.5934C142.921 13.8234 144.499 13.4385 146.282 13.4385C147.608 13.4385 148.751 13.6536 149.711 14.0838C150.694 14.4914 151.494 15.0349 152.111 15.7143C152.751 16.371 153.22 17.0843 153.517 17.8542C153.837 18.6241 153.997 19.3601 153.997 20.0621C153.997 21.3076 153.689 22.236 153.071 22.8474C152.477 23.4362 151.711 23.7306 150.774 23.7306H142.612C142.658 24.3193 142.864 24.8175 143.23 25.2251C143.618 25.6328 144.098 25.9498 144.67 26.1762C145.241 26.4027 145.847 26.5159 146.487 26.5159C147.036 26.5159 147.516 26.4933 147.928 26.448C148.339 26.38 148.694 26.3008 148.991 26.2102C149.288 26.097 149.562 25.9951 149.814 25.9045C150.065 25.7913 150.282 25.7007 150.465 25.6328C150.671 25.5648 150.865 25.5195 151.048 25.4969C151.391 25.4742 151.7 25.5761 151.974 25.8026C152.271 26.0064 152.534 26.3234 152.763 26.7537C152.923 27.0028 153.026 27.2405 153.071 27.467C153.14 27.6934 153.174 27.9199 153.174 28.1463C153.174 28.6898 152.889 29.1767 152.317 29.6069C151.768 30.0372 150.98 30.3769 149.951 30.626C148.945 30.8751 147.722 30.9996 146.282 30.9996ZM142.612 20.9453H148.031C148.396 20.9453 148.659 20.8886 148.819 20.7754C149.002 20.6395 149.094 20.3905 149.094 20.0281C149.094 19.6205 148.968 19.2695 148.716 18.9751C148.465 18.6581 148.122 18.4203 147.688 18.2618C147.276 18.0807 146.796 17.9901 146.247 17.9901C145.539 17.9901 144.91 18.126 144.361 18.3977C143.813 18.6694 143.378 19.0318 143.058 19.4847C142.761 19.9376 142.612 20.4244 142.612 20.9453Z" fill="white"/>
<path d="M164.674 30.6943C163.508 30.6943 162.502 30.5697 161.656 30.3207C160.833 30.0716 160.147 29.6866 159.599 29.1658C159.05 28.6449 158.638 27.9882 158.364 27.1957C158.113 26.3804 157.987 25.418 157.987 24.3084V10.5177C157.987 10.0648 158.021 9.65721 158.09 9.29489C158.181 8.93257 158.41 8.63818 158.776 8.41174C159.141 8.16264 159.736 8.03809 160.559 8.03809C161.382 8.03809 161.976 8.16264 162.342 8.41174C162.708 8.66083 162.925 8.97786 162.993 9.36282C163.085 9.74779 163.131 10.1667 163.131 10.6196V24.1046C163.131 24.4669 163.153 24.7726 163.199 25.0217C163.268 25.2482 163.359 25.418 163.474 25.5312C163.588 25.6445 163.748 25.7237 163.954 25.769C164.159 25.8143 164.411 25.837 164.708 25.837C165.211 25.837 165.657 25.8822 166.045 25.9728C166.434 26.0634 166.731 26.2672 166.937 26.5842C167.166 26.9013 167.28 27.4334 167.28 28.1807C167.28 28.9959 167.154 29.5847 166.903 29.947C166.651 30.3093 166.32 30.5245 165.908 30.5924C165.52 30.6603 165.108 30.6943 164.674 30.6943ZM156.924 13.9823H160.696L165.428 13.8465C165.862 13.8465 166.274 13.8918 166.663 13.9823C167.051 14.0503 167.371 14.2654 167.623 14.6277C167.874 14.99 168 15.5901 168 16.428C168 17.1979 167.874 17.764 167.623 18.1264C167.394 18.4887 167.086 18.7264 166.697 18.8397C166.308 18.9303 165.885 18.9755 165.428 18.9755L160.936 18.8736H156.787C156.124 18.851 155.655 18.6585 155.381 18.2962C155.129 17.9112 155.004 17.2772 155.004 16.394C155.004 15.5788 155.164 14.9787 155.484 14.5938C155.804 14.1861 156.284 13.9823 156.924 13.9823Z" fill="white"/>
<path d="M158.309 53.9942V55H87.6908V53.9942H158.309ZM167.025 45C167.025 40.0327 163.123 36.0058 158.309 36.0058H87.6908C82.8771 36.0058 78.9747 40.0327 78.9747 45C78.9748 49.9673 82.8771 53.9942 87.6908 53.9942V55L87.4408 54.9967C82.2874 54.8621 78.1337 50.5758 78.0032 45.258L78 45C78 39.5635 82.2041 35.1403 87.4405 35.0033L87.6908 35H158.309L158.56 35.0033C163.796 35.1403 168 39.5635 168 45L167.997 45.258C167.866 50.5757 163.713 54.8619 158.56 54.9967L158.309 55V53.9942C163.123 53.9942 167.025 49.9673 167.025 45Z" fill="#FF803B"/>
<path d="M88.737 48.0051C88.4978 48.0051 88.3265 47.9697 88.223 47.8991C88.1261 47.8284 88.0646 47.7352 88.0388 47.6196C88.0129 47.504 88 47.3851 88 47.2631V42.0018C88 41.8798 88.0129 41.7642 88.0388 41.6549C88.0646 41.5393 88.1293 41.4462 88.2327 41.3755C88.3362 41.3048 88.5075 41.2695 88.7467 41.2695H90.7347C91.0062 41.2695 91.2777 41.3177 91.5493 41.414C91.8273 41.5104 92.0826 41.6614 92.3154 41.8669C92.5546 42.0661 92.7453 42.3134 92.8875 42.6089C93.0362 42.9044 93.1106 43.2513 93.1106 43.6496C93.1106 44.0415 93.0362 44.3851 92.8875 44.6806C92.7453 44.9761 92.5546 45.2235 92.3154 45.4226C92.0826 45.6153 91.8273 45.7631 91.5493 45.8659C91.2713 45.9622 90.9965 46.0104 90.725 46.0104H89.4837V47.2727C89.4837 47.3948 89.4708 47.5136 89.4449 47.6293C89.4191 47.7385 89.3544 47.8284 89.251 47.8991C89.1475 47.9697 88.9762 48.0051 88.737 48.0051ZM89.4837 44.5457H90.7347C90.8769 44.5457 91.0159 44.5168 91.1517 44.459C91.2939 44.3948 91.4103 44.2952 91.5008 44.1603C91.5978 44.0254 91.6462 43.8519 91.6462 43.64C91.6462 43.4601 91.6074 43.3027 91.5299 43.1678C91.4523 43.0329 91.3424 42.9269 91.2002 42.8498C91.0644 42.7727 90.906 42.7342 90.725 42.7342H89.4837V44.5457Z" fill="white"/>
<path d="M96.1427 48.0922C95.6902 48.0922 95.2991 48.0183 94.9694 47.8705C94.6461 47.7228 94.381 47.5301 94.1742 47.2924C93.9673 47.0483 93.8121 46.7785 93.7087 46.483C93.6117 46.1875 93.5632 45.892 93.5632 45.5965C93.5632 45.1147 93.6731 44.6875 93.8929 44.3149C94.1127 43.9423 94.4166 43.65 94.8045 43.438C95.1924 43.2196 95.6385 43.1104 96.1427 43.1104C96.5177 43.1104 96.841 43.1714 97.1125 43.2935C97.3905 43.4091 97.6168 43.5633 97.7913 43.756C97.9723 43.9423 98.1049 44.1446 98.1889 44.3631C98.2794 44.5815 98.3247 44.7902 98.3247 44.9894C98.3247 45.3427 98.2374 45.6061 98.0628 45.7795C97.8947 45.9466 97.6782 46.0301 97.4131 46.0301H95.1051C95.118 46.1971 95.1762 46.3384 95.2797 46.4541C95.3896 46.5697 95.5253 46.6596 95.687 46.7239C95.8486 46.7881 96.0199 46.8202 96.2009 46.8202C96.3561 46.8202 96.4919 46.8138 96.6082 46.801C96.7246 46.7817 96.8248 46.7592 96.9088 46.7335C96.9929 46.7014 97.0705 46.6725 97.1416 46.6468C97.2127 46.6147 97.2741 46.589 97.3258 46.5697C97.384 46.5504 97.439 46.5376 97.4907 46.5311C97.5877 46.5247 97.6749 46.5536 97.7525 46.6179C97.8366 46.6757 97.9109 46.7656 97.9756 46.8877C98.0208 46.9583 98.0499 47.0258 98.0628 47.09C98.0822 47.1543 98.0919 47.2185 98.0919 47.2828C98.0919 47.4369 98.0111 47.575 97.8495 47.6971C97.6943 47.8192 97.4713 47.9155 97.1804 47.9862C96.8959 48.0568 96.55 48.0922 96.1427 48.0922ZM95.1051 45.2399H96.6373C96.7408 45.2399 96.8151 45.2239 96.8604 45.1917C96.9121 45.1532 96.9379 45.0825 96.9379 44.9798C96.9379 44.8641 96.9024 44.7646 96.8313 44.681C96.7601 44.5911 96.6632 44.5237 96.5403 44.4787C96.424 44.4273 96.2882 44.4016 96.133 44.4016C95.9326 44.4016 95.7548 44.4401 95.5997 44.5172C95.4445 44.5943 95.3217 44.6971 95.2312 44.8256C95.1471 44.9541 95.1051 45.0922 95.1051 45.2399Z" fill="white"/>
<path d="M101.344 48.0053C101.014 48.0053 100.73 47.9699 100.491 47.8993C100.258 47.8286 100.064 47.7194 99.9088 47.5716C99.7536 47.4239 99.6373 47.2376 99.5597 47.0127C99.4886 46.7815 99.453 46.5085 99.453 46.1937V42.2815C99.453 42.153 99.4627 42.0374 99.4821 41.9346C99.508 41.8318 99.5726 41.7483 99.676 41.6841C99.7795 41.6134 99.9476 41.5781 100.18 41.5781C100.413 41.5781 100.581 41.6134 100.684 41.6841C100.788 41.7547 100.849 41.8447 100.869 41.9539C100.895 42.0631 100.908 42.1819 100.908 42.3104V46.1359C100.908 46.2387 100.914 46.3254 100.927 46.396C100.946 46.4603 100.972 46.5085 101.004 46.5406C101.037 46.5727 101.082 46.5952 101.14 46.608C101.198 46.6209 101.27 46.6273 101.354 46.6273C101.496 46.6273 101.622 46.6402 101.732 46.6659C101.842 46.6915 101.926 46.7494 101.984 46.8393C102.049 46.9292 102.081 47.0802 102.081 47.2922C102.081 47.5235 102.045 47.6905 101.974 47.7933C101.903 47.896 101.809 47.9571 101.693 47.9763C101.583 47.9956 101.467 48.0053 101.344 48.0053ZM99.1524 43.2644H100.219L101.557 43.2258C101.68 43.2258 101.796 43.2387 101.906 43.2644C102.016 43.2836 102.107 43.3447 102.178 43.4474C102.249 43.5502 102.285 43.7205 102.285 43.9581C102.285 44.1766 102.249 44.3372 102.178 44.4399C102.113 44.5427 102.026 44.6102 101.916 44.6423C101.806 44.668 101.687 44.6808 101.557 44.6808L100.287 44.6519H99.1136C98.9261 44.6455 98.7936 44.5909 98.716 44.4881C98.6449 44.3789 98.6093 44.199 98.6093 43.9485C98.6093 43.7172 98.6546 43.547 98.7451 43.4378C98.8356 43.3222 98.9714 43.2644 99.1524 43.2644Z" fill="white"/>
<path d="M108.504 48.0821C108.219 48.0821 107.919 48.0372 107.602 47.9472C107.285 47.8573 106.975 47.7224 106.671 47.5425C106.367 47.3627 106.089 47.1346 105.837 46.8584C105.591 46.5757 105.394 46.2481 105.246 45.8755C105.103 45.4965 105.032 45.0661 105.032 44.5843C105.032 44.1218 105.103 43.7106 105.246 43.3509C105.394 42.9847 105.591 42.6667 105.837 42.3969C106.083 42.1271 106.358 41.9055 106.661 41.732C106.965 41.5522 107.279 41.4205 107.602 41.337C107.925 41.247 108.232 41.2021 108.523 41.2021C108.853 41.2021 109.141 41.2406 109.386 41.3177C109.632 41.3948 109.833 41.4751 109.988 41.5586C110.143 41.6357 110.24 41.6903 110.279 41.7224C110.395 41.7931 110.505 41.8734 110.608 41.9633C110.712 42.0532 110.767 42.1721 110.773 42.3198C110.773 42.3969 110.757 42.474 110.725 42.5511C110.699 42.6218 110.657 42.6988 110.599 42.7824C110.495 42.9301 110.395 43.0393 110.298 43.11C110.207 43.1742 110.114 43.2063 110.017 43.2063C109.939 43.2063 109.865 43.1871 109.794 43.1485C109.729 43.11 109.645 43.0586 109.542 42.9943C109.496 42.9622 109.432 42.9237 109.348 42.8787C109.264 42.8273 109.15 42.7824 109.008 42.7438C108.866 42.6988 108.685 42.6764 108.465 42.6764C108.239 42.6764 108.009 42.7181 107.777 42.8016C107.55 42.8787 107.34 42.9976 107.146 43.1582C106.952 43.3188 106.797 43.5243 106.681 43.7749C106.564 44.019 106.506 44.3048 106.506 44.6325C106.506 44.9729 106.564 45.2652 106.681 45.5093C106.804 45.7534 106.962 45.9558 107.156 46.1164C107.35 46.277 107.56 46.3991 107.786 46.4826C108.019 46.5597 108.245 46.5982 108.465 46.5982C108.659 46.5982 108.824 46.5789 108.96 46.5404C109.102 46.5018 109.222 46.4569 109.319 46.4055C109.422 46.3477 109.509 46.2963 109.58 46.2513C109.651 46.2063 109.723 46.1646 109.794 46.126C109.871 46.0875 109.949 46.0682 110.026 46.0682C110.117 46.0682 110.207 46.1036 110.298 46.1742C110.395 46.2449 110.492 46.3573 110.589 46.5115C110.647 46.595 110.692 46.6785 110.725 46.762C110.757 46.8391 110.77 46.9162 110.763 46.9933C110.763 47.1282 110.712 47.2406 110.608 47.3305C110.505 47.414 110.395 47.4911 110.279 47.5618C110.227 47.5875 110.127 47.6453 109.978 47.7352C109.829 47.8188 109.632 47.8958 109.386 47.9665C109.141 48.0436 108.847 48.0821 108.504 48.0821Z" fill="white"/>
<path d="M115.176 47.9958C114.937 47.9958 114.759 47.9541 114.643 47.8705C114.533 47.787 114.478 47.6843 114.478 47.5622L114.575 47.3984C114.536 47.4626 114.462 47.5429 114.352 47.6393C114.242 47.7292 114.1 47.8127 113.925 47.8898C113.751 47.9605 113.534 47.9958 113.276 47.9958C112.978 47.9958 112.694 47.9316 112.422 47.8031C112.157 47.6746 111.921 47.498 111.714 47.2731C111.507 47.0419 111.343 46.7817 111.22 46.4926C111.103 46.2035 111.045 45.8984 111.045 45.5772C111.045 45.2624 111.103 44.9637 111.22 44.681C111.343 44.392 111.507 44.1382 111.714 43.9198C111.928 43.695 112.167 43.5183 112.432 43.3898C112.697 43.2613 112.978 43.1971 113.276 43.1971C113.515 43.1971 113.718 43.2324 113.886 43.3031C114.055 43.3673 114.194 43.4444 114.303 43.5344C114.42 43.6243 114.507 43.711 114.565 43.7945L114.488 43.6596C114.481 43.5055 114.533 43.3898 114.643 43.3127C114.759 43.2292 114.94 43.1875 115.186 43.1875C115.419 43.1875 115.584 43.2228 115.681 43.2935C115.784 43.3641 115.845 43.4573 115.865 43.5729C115.891 43.6885 115.904 43.8106 115.904 43.9391V47.2635C115.904 47.3855 115.891 47.5044 115.865 47.62C115.845 47.7356 115.784 47.8288 115.681 47.8995C115.584 47.9637 115.415 47.9958 115.176 47.9958ZM113.489 46.5601C113.657 46.5601 113.809 46.5183 113.945 46.4348C114.087 46.3449 114.197 46.226 114.274 46.0783C114.358 45.9305 114.4 45.7667 114.4 45.5868C114.4 45.4005 114.358 45.2367 114.274 45.0954C114.19 44.9476 114.077 44.832 113.935 44.7485C113.793 44.6586 113.638 44.6136 113.469 44.6136C113.282 44.6136 113.114 44.6586 112.965 44.7485C112.823 44.8384 112.707 44.9573 112.616 45.105C112.532 45.2528 112.49 45.4198 112.49 45.6061C112.49 45.7795 112.532 45.9401 112.616 46.0879C112.707 46.2292 112.826 46.3449 112.975 46.4348C113.13 46.5183 113.301 46.5601 113.489 46.5601Z" fill="white"/>
<path d="M117.411 48.0059C117.172 48.0059 117.001 47.9737 116.897 47.9095C116.8 47.8388 116.739 47.7457 116.713 47.6301C116.694 47.5144 116.684 47.3955 116.684 47.2734V43.9105C116.684 43.782 116.697 43.6632 116.723 43.554C116.749 43.4448 116.81 43.358 116.907 43.2938C117.01 43.2231 117.182 43.1879 117.421 43.1879C117.647 43.1879 117.809 43.2199 117.906 43.2841C118.009 43.3419 118.074 43.4127 118.1 43.4962C118.126 43.5733 118.139 43.6408 118.139 43.6986L118.022 43.7564C118.035 43.7307 118.067 43.6856 118.119 43.6214C118.177 43.5507 118.255 43.4802 118.352 43.4095C118.449 43.3324 118.565 43.2682 118.701 43.2168C118.843 43.1654 119.005 43.1396 119.186 43.1396C119.257 43.1396 119.335 43.1461 119.419 43.159C119.509 43.1654 119.6 43.1847 119.69 43.2168C119.787 43.2425 119.874 43.281 119.952 43.3324C120.03 43.3774 120.091 43.4352 120.136 43.5059C120.188 43.5765 120.214 43.6631 120.214 43.7659C120.214 44.0293 120.152 44.2541 120.03 44.4404C119.907 44.6203 119.752 44.7104 119.564 44.7104C119.454 44.7104 119.377 44.7007 119.331 44.6814C119.286 44.6622 119.247 44.6429 119.215 44.6236C119.189 44.6044 119.157 44.5883 119.118 44.5754C119.079 44.5562 119.008 44.5465 118.905 44.5465C118.808 44.5465 118.714 44.5593 118.623 44.585C118.539 44.6107 118.459 44.6525 118.381 44.7104C118.31 44.7617 118.252 44.8292 118.206 44.9127C118.168 44.9898 118.148 45.0765 118.148 45.1729V47.2928C118.148 47.4148 118.135 47.5336 118.109 47.6493C118.09 47.7585 118.029 47.8453 117.925 47.9095C117.822 47.9737 117.65 48.0059 117.411 48.0059Z" fill="white"/>
<path d="M122.896 48.0922C122.443 48.0922 122.052 48.0183 121.723 47.8705C121.399 47.7228 121.134 47.5301 120.927 47.2924C120.72 47.0483 120.565 46.7785 120.462 46.483C120.365 46.1875 120.316 45.892 120.316 45.5965C120.316 45.1147 120.426 44.6875 120.646 44.3149C120.866 43.9423 121.17 43.65 121.558 43.438C121.946 43.2196 122.392 43.1104 122.896 43.1104C123.271 43.1104 123.594 43.1714 123.866 43.2935C124.144 43.4091 124.37 43.5633 124.545 43.756C124.726 43.9423 124.858 44.1446 124.942 44.3631C125.033 44.5815 125.078 44.7902 125.078 44.9894C125.078 45.3427 124.991 45.6061 124.816 45.7795C124.648 45.9466 124.431 46.0301 124.166 46.0301H121.858C121.871 46.1971 121.929 46.3384 122.033 46.4541C122.143 46.5697 122.279 46.6596 122.44 46.7239C122.602 46.7881 122.773 46.8202 122.954 46.8202C123.109 46.8202 123.245 46.8138 123.361 46.801C123.478 46.7817 123.578 46.7592 123.662 46.7335C123.746 46.7014 123.824 46.6725 123.895 46.6468C123.966 46.6147 124.027 46.589 124.079 46.5697C124.137 46.5504 124.192 46.5376 124.244 46.5311C124.341 46.5247 124.428 46.5536 124.506 46.6179C124.59 46.6757 124.664 46.7656 124.729 46.8877C124.774 46.9583 124.803 47.0258 124.816 47.09C124.835 47.1543 124.845 47.2185 124.845 47.2828C124.845 47.4369 124.764 47.575 124.603 47.6971C124.448 47.8192 124.224 47.9155 123.934 47.9862C123.649 48.0568 123.303 48.0922 122.896 48.0922ZM121.858 45.2399H123.391C123.494 45.2399 123.568 45.2239 123.614 45.1917C123.665 45.1532 123.691 45.0825 123.691 44.9798C123.691 44.8641 123.656 44.7646 123.584 44.681C123.513 44.5911 123.416 44.5237 123.294 44.4787C123.177 44.4273 123.041 44.4016 122.886 44.4016C122.686 44.4016 122.508 44.4401 122.353 44.5172C122.198 44.5943 122.075 44.6971 121.984 44.8256C121.9 44.9541 121.858 45.0922 121.858 45.2399Z" fill="white"/>
<path d="M130.133 48.0632C129.642 48.0632 129.225 47.9925 128.882 47.8512C128.54 47.7034 128.278 47.485 128.097 47.1959C127.922 46.9069 127.835 46.5503 127.835 46.1263C127.835 45.9015 127.877 45.6863 127.961 45.4807C128.045 45.2687 128.168 45.06 128.33 44.8544C128.491 44.6488 128.692 44.4465 128.931 44.2473C128.853 44.0739 128.782 43.9036 128.718 43.7366C128.659 43.5632 128.614 43.3961 128.582 43.2355C128.556 43.0685 128.543 42.9079 128.543 42.7537C128.543 42.3747 128.621 42.0567 128.776 41.7998C128.937 41.5364 129.167 41.3373 129.464 41.2024C129.768 41.0675 130.137 41 130.57 41C130.938 41 131.255 41.0642 131.52 41.1927C131.785 41.3212 131.989 41.5043 132.131 41.742C132.28 41.9797 132.354 42.2655 132.354 42.5996C132.354 42.7987 132.309 42.9882 132.218 43.1681C132.134 43.3415 132.015 43.5118 131.859 43.6788C131.704 43.8394 131.53 43.9968 131.336 44.151C131.142 44.3051 130.938 44.4561 130.725 44.6039C130.854 44.7773 130.983 44.9443 131.113 45.1049C131.249 45.2591 131.388 45.4036 131.53 45.5385C131.672 45.6734 131.811 45.7923 131.947 45.8951C132.083 45.7537 132.183 45.6188 132.247 45.4904C132.312 45.3555 132.357 45.2173 132.383 45.076C132.415 44.9475 132.493 44.8512 132.616 44.7869C132.739 44.7163 132.917 44.6809 133.149 44.6809C133.35 44.6809 133.492 44.7099 133.576 44.7677C133.666 44.8191 133.725 44.8833 133.75 44.9604C133.776 45.031 133.786 45.0985 133.78 45.1627C133.767 45.3876 133.705 45.6124 133.595 45.8373C133.485 46.0621 133.337 46.2869 133.149 46.5118C133.188 46.5246 133.224 46.5343 133.256 46.5407C133.295 46.5471 133.333 46.5535 133.372 46.56C133.418 46.56 133.469 46.56 133.527 46.56C133.754 46.56 133.922 46.6178 134.032 46.7334C134.142 46.8426 134.197 47.0096 134.197 47.2345C134.197 47.5171 134.148 47.7098 134.051 47.8126C133.954 47.9154 133.776 47.9668 133.518 47.9668C133.343 47.9668 133.165 47.954 132.984 47.9283C132.803 47.9026 132.622 47.8608 132.441 47.803C132.267 47.7388 132.092 47.6617 131.918 47.5717C131.73 47.6745 131.536 47.7645 131.336 47.8415C131.142 47.9122 130.945 47.9668 130.744 48.0054C130.544 48.0439 130.34 48.0632 130.133 48.0632ZM130.182 46.7816C130.279 46.7816 130.373 46.7719 130.463 46.7527C130.554 46.7334 130.631 46.7109 130.696 46.6852C130.618 46.6081 130.534 46.5246 130.444 46.4347C130.353 46.3383 130.263 46.2388 130.172 46.136C130.082 46.0332 129.991 45.9272 129.901 45.818C129.81 45.7088 129.723 45.5964 129.639 45.4807C129.581 45.545 129.532 45.606 129.493 45.6638C129.455 45.7152 129.422 45.7666 129.396 45.818C129.37 45.863 129.351 45.9111 129.338 45.9625C129.325 46.0139 129.319 46.0653 129.319 46.1167C129.319 46.258 129.351 46.3801 129.416 46.4829C129.487 46.5792 129.587 46.6531 129.716 46.7045C129.846 46.7559 130.001 46.7816 130.182 46.7816ZM130.085 43.4764C130.24 43.3672 130.376 43.2709 130.492 43.1874C130.609 43.0974 130.705 43.0171 130.783 42.9465C130.861 42.8758 130.919 42.8116 130.958 42.7537C130.996 42.6895 131.016 42.6317 131.016 42.5803C131.016 42.4454 130.971 42.3394 130.88 42.2623C130.796 42.1852 130.68 42.1467 130.531 42.1467C130.389 42.1467 130.269 42.166 130.172 42.2045C130.075 42.243 130.001 42.3009 129.949 42.3779C129.904 42.455 129.881 42.5514 129.881 42.667C129.881 42.7441 129.888 42.8244 129.901 42.9079C129.92 42.985 129.943 43.0717 129.968 43.1681C130.001 43.2645 130.04 43.3672 130.085 43.4764Z" fill="white"/>
<path d="M139.417 48.102C139.075 48.102 138.774 48.0603 138.515 47.9767C138.263 47.8932 138.047 47.7937 137.866 47.678C137.691 47.556 137.552 47.4371 137.449 47.3215C137.345 47.2059 137.274 47.1191 137.235 47.0613C137.125 46.92 137.058 46.7979 137.032 46.6952C137.006 46.586 137.019 46.4767 137.07 46.3675C137.129 46.2583 137.226 46.1395 137.361 46.011C137.497 45.8954 137.623 45.8343 137.74 45.8279C137.862 45.8151 137.982 45.844 138.098 45.9146C138.215 45.9853 138.328 46.0849 138.438 46.2134C138.593 46.3997 138.745 46.5313 138.894 46.6084C139.049 46.6791 139.21 46.7144 139.378 46.7144C139.592 46.7144 139.773 46.6887 139.922 46.6373C140.07 46.586 140.183 46.5057 140.261 46.3964C140.339 46.2808 140.377 46.1363 140.377 45.9628C140.377 45.8215 140.322 45.7091 140.212 45.6256C140.109 45.5356 139.967 45.4585 139.786 45.3943C139.611 45.3301 139.414 45.269 139.194 45.2112C138.981 45.147 138.768 45.0731 138.554 44.9896C138.406 44.9382 138.263 44.874 138.128 44.7969C137.992 44.7198 137.862 44.6331 137.74 44.5367C137.617 44.4403 137.51 44.3247 137.42 44.1898C137.336 44.0549 137.268 43.9007 137.216 43.7273C137.171 43.5538 137.148 43.3547 137.148 43.1299C137.148 42.7508 137.242 42.4136 137.429 42.1181C137.617 41.8226 137.875 41.5913 138.205 41.4243C138.541 41.2508 138.926 41.1641 139.359 41.1641C139.65 41.1641 139.902 41.1898 140.115 41.2412C140.335 41.2926 140.52 41.3536 140.668 41.4243C140.817 41.4949 140.933 41.5656 141.017 41.6363C141.108 41.7005 141.169 41.7519 141.202 41.7904C141.383 41.9575 141.483 42.102 141.502 42.2241C141.522 42.3397 141.454 42.5035 141.299 42.7155C141.137 42.9403 140.975 43.0656 140.814 43.0913C140.659 43.117 140.481 43.0624 140.28 42.9275C140.203 42.8568 140.125 42.7926 140.048 42.7348C139.97 42.677 139.876 42.632 139.766 42.5999C139.663 42.5613 139.524 42.5421 139.349 42.5421C139.246 42.5421 139.149 42.5581 139.058 42.5902C138.968 42.6159 138.89 42.6545 138.826 42.7059C138.761 42.7573 138.709 42.8215 138.671 42.8986C138.632 42.9693 138.612 43.0496 138.612 43.1395C138.612 43.2872 138.661 43.4061 138.758 43.496C138.861 43.586 138.994 43.6598 139.155 43.7176C139.324 43.769 139.508 43.8204 139.708 43.8718C139.915 43.9168 140.125 43.9714 140.339 44.0356C140.532 44.0999 140.72 44.1802 140.901 44.2765C141.082 44.3665 141.244 44.4821 141.386 44.6234C141.528 44.7648 141.641 44.9414 141.725 45.1534C141.816 45.3654 141.861 45.6256 141.861 45.9339C141.861 46.3194 141.787 46.6502 141.638 46.9264C141.489 47.2027 141.292 47.4275 141.046 47.6009C140.801 47.7744 140.536 47.8997 140.251 47.9767C139.967 48.0603 139.689 48.102 139.417 48.102Z" fill="white"/>
<path d="M143.169 48.0054C142.936 48.0054 142.768 47.9732 142.665 47.909C142.561 47.8383 142.497 47.7484 142.471 47.6392C142.452 47.5236 142.442 47.4015 142.442 47.273V41.7227C142.442 41.5942 142.455 41.4754 142.481 41.3662C142.507 41.257 142.571 41.1702 142.675 41.106C142.778 41.0353 142.946 41 143.179 41C143.418 41 143.586 41.0353 143.683 41.106C143.787 41.1767 143.848 41.2666 143.867 41.3758C143.893 41.485 143.906 41.6039 143.906 41.7323V43.6981C144.023 43.576 144.171 43.4604 144.352 43.3512C144.54 43.242 144.76 43.1874 145.012 43.1874C145.413 43.1874 145.771 43.2901 146.088 43.4957C146.411 43.6949 146.667 43.9711 146.854 44.3244C147.048 44.6777 147.145 45.0824 147.145 45.5385V47.2827C147.145 47.4111 147.132 47.53 147.106 47.6392C147.081 47.7484 147.019 47.8383 146.922 47.909C146.825 47.9732 146.654 48.0054 146.408 48.0054C146.182 48.0054 146.014 47.9732 145.904 47.909C145.8 47.8383 145.736 47.7484 145.71 47.6392C145.691 47.5236 145.681 47.4015 145.681 47.273V45.5289C145.681 45.3426 145.649 45.1852 145.584 45.0567C145.519 44.9218 145.422 44.8158 145.293 44.7388C145.17 44.6617 145.018 44.6231 144.837 44.6231C144.598 44.6231 144.388 44.697 144.207 44.8448C144.032 44.9861 143.932 45.1595 143.906 45.3651V47.2827C143.906 47.4111 143.893 47.53 143.867 47.6392C143.842 47.7484 143.777 47.8383 143.673 47.909C143.576 47.9732 143.408 48.0054 143.169 48.0054Z" fill="white"/>
<path d="M150.159 48.0822C149.855 48.0822 149.551 48.0244 149.247 47.9088C148.95 47.7867 148.678 47.6165 148.433 47.3981C148.187 47.1797 147.993 46.9195 147.851 46.6176C147.708 46.3092 147.637 45.9688 147.637 45.5962C147.637 45.2493 147.702 44.9281 147.831 44.6326C147.961 44.3306 148.142 44.064 148.374 43.8328C148.607 43.6015 148.872 43.4216 149.17 43.2932C149.473 43.1583 149.797 43.0908 150.139 43.0908C150.605 43.0908 151.025 43.2032 151.4 43.4281C151.781 43.6465 152.085 43.9452 152.312 44.3242C152.538 44.7032 152.651 45.124 152.651 45.5865C152.651 45.9784 152.577 46.3285 152.428 46.6368C152.286 46.9388 152.092 47.1989 151.846 47.4174C151.607 47.6358 151.339 47.8028 151.041 47.9184C150.75 48.0276 150.456 48.0822 150.159 48.0822ZM150.139 46.6272C150.294 46.6272 150.453 46.5887 150.614 46.5116C150.776 46.4345 150.912 46.3189 151.022 46.1647C151.132 46.0105 151.187 45.8146 151.187 45.5769C151.187 45.3713 151.141 45.1914 151.051 45.0373C150.96 44.8831 150.834 44.7643 150.673 44.6807C150.518 44.5908 150.336 44.5458 150.13 44.5458C149.936 44.5458 149.761 44.5908 149.606 44.6807C149.457 44.7707 149.334 44.8959 149.237 45.0565C149.147 45.2107 149.102 45.3874 149.102 45.5865C149.102 45.8178 149.153 46.0137 149.257 46.1743C149.367 46.3285 149.503 46.4441 149.664 46.5212C149.826 46.5919 149.984 46.6272 150.139 46.6272Z" fill="white"/>
<path d="M155.789 47.9187C155.472 47.9187 155.191 47.8577 154.945 47.7356C154.706 47.6072 154.506 47.4369 154.344 47.2249C154.189 47.0065 154.069 46.756 153.985 46.4733C153.908 46.1907 153.872 45.8855 153.879 45.5579C153.879 45.2431 153.921 44.9444 154.005 44.6618C154.089 44.3727 154.208 44.1189 154.363 43.9005C154.525 43.6757 154.722 43.5022 154.955 43.3802C155.194 43.2517 155.472 43.1875 155.789 43.1875C156.073 43.1875 156.348 43.2517 156.613 43.3802C156.885 43.5087 157.124 43.6853 157.331 43.9102C157.538 44.1286 157.699 44.3823 157.816 44.6714C157.939 44.9605 158 45.2656 158 45.5868C158 45.908 157.939 46.2132 157.816 46.5022C157.699 46.7849 157.538 47.0322 157.331 47.2442C157.124 47.4562 156.888 47.6232 156.623 47.7453C156.358 47.8609 156.08 47.9187 155.789 47.9187ZM153.917 50.0001C153.685 50.0001 153.517 49.9648 153.413 49.8941C153.316 49.8299 153.255 49.7431 153.229 49.6339C153.209 49.5311 153.2 49.4187 153.2 49.2967V43.9102C153.2 43.7817 153.209 43.6661 153.229 43.5633C153.248 43.4541 153.306 43.3641 153.403 43.2935C153.507 43.2228 153.675 43.1875 153.908 43.1875C154.108 43.1875 154.266 43.2164 154.383 43.2742C154.506 43.332 154.593 43.4219 154.645 43.544V49.287C154.651 49.4091 154.641 49.5247 154.616 49.6339C154.59 49.7431 154.525 49.8299 154.422 49.8941C154.325 49.9648 154.157 50.0001 153.917 50.0001ZM155.585 46.5601C155.766 46.5601 155.928 46.5183 156.07 46.4348C156.212 46.3449 156.326 46.226 156.41 46.0783C156.5 45.9305 156.545 45.7667 156.545 45.5868C156.545 45.4005 156.503 45.2367 156.419 45.0954C156.335 44.9476 156.222 44.832 156.08 44.7485C155.938 44.665 155.776 44.6232 155.595 44.6232C155.42 44.6232 155.259 44.6682 155.11 44.7581C154.968 44.8416 154.855 44.9573 154.771 45.105C154.693 45.2464 154.654 45.407 154.654 45.5868C154.654 45.7667 154.696 45.9305 154.78 46.0783C154.864 46.226 154.978 46.3449 155.12 46.4348C155.262 46.5183 155.417 46.5601 155.585 46.5601Z" fill="white"/>
<path d="M134.202 1.97253C134.183 1.98512 134.163 1.9998 134.145 2.01319C133.45 2.66696 133.582 3.81089 134.019 4.61269C134.382 5.36255 135.258 6.05876 136.092 5.73794C136.212 5.68984 136.317 5.60825 136.402 5.51194C137.083 4.63237 136.767 3.29518 136.051 2.48325C135.634 1.92841 134.8 1.57297 134.202 1.97253ZM130.884 4.18005C130.402 4.51146 130.358 5.27442 130.598 5.80832C131.064 6.87283 132.268 7.79043 133.432 7.46699C133.536 7.42896 133.63 7.37017 133.712 7.29635C134.29 6.75951 134.069 5.82412 133.641 5.23145C133.092 4.43728 132.075 3.76813 131.118 4.0669C131.03 4.09517 130.952 4.13315 130.884 4.18005ZM138.152 3.34449C137.338 3.94719 137.332 5.20088 137.786 6.07271C138.061 6.73511 138.883 7.32694 139.565 6.952C140.463 6.35114 140.423 4.9471 139.883 4.0671C139.565 3.45887 138.785 2.97767 138.152 3.34449ZM130.856 8.35943C130.493 8.59075 130.285 9.04499 130.416 9.50081C130.768 10.7204 132.245 11.5965 133.425 11.1345C133.909 10.9301 134.064 10.3377 133.899 9.85311C133.544 8.8182 132.399 8.09169 131.343 8.20426C131.164 8.21292 130.997 8.26864 130.856 8.35943ZM135.854 7.71077C135.147 8.17186 134.673 9.0097 134.579 9.86048C134.508 10.8263 134.595 11.8394 134.971 12.7557C135.162 13.4664 136.042 13.8562 136.65 13.4685C137.391 13.0167 137.677 12.0933 138.374 11.5853C138.924 11.0897 139.692 11.0627 140.386 10.9209C140.992 10.8237 141.589 10.3225 141.485 9.64283C141.323 8.98725 140.672 8.59884 140.131 8.27437C139.156 7.81109 138.122 7.32936 137.038 7.34825C136.599 7.35047 136.199 7.48551 135.854 7.71077Z" fill="#FF803B"/>
<path d="M66.8944 27.1485C71.9114 40.3433 59.6518 61.3147 34.2302 53.1764C20.7029 48.8477 -1.89453 58.6082 0.126921 39.9557C1.94588 23.1616 15.1207 17.5377 21.6245 14.9828C28.1262 12.4297 32.3989 -1.25692 45.6726 0.0934739C62.7986 1.83932 61.8791 13.9553 66.8944 27.1485Z" fill="#FF803B"/>
<mask id="mask0_5_2219" style="mask-type:alpha" maskUnits="userSpaceOnUse" x="0" y="0" width="68" height="55">
<path d="M66.8944 27.1485C71.9114 40.3433 59.6518 61.3147 34.2302 53.1764C20.7029 48.8477 -1.89453 58.6082 0.126921 39.9557C1.94588 23.1616 15.1207 17.5377 21.6245 14.9828C28.1262 12.4297 32.3989 -1.25692 45.6726 0.0934739C62.7986 1.83932 61.8791 13.9553 66.8944 27.1485Z" fill="#17235B"/>
</mask>
<g mask="url(#mask0_5_2219)">
<path d="M35.0922 16.3384C34.7529 16.4341 34.0248 17.4053 34.6143 17.8351C34.8441 18.003 34.8607 19.6315 36.1814 20.2039C39.2682 21.54 42.1014 20.6191 43.0299 21.3468C43.4259 21.6556 41.5157 27.9111 42.2054 30.9802C43.1339 35.1233 44.7615 41.791 44.5134 43.6506C43.3602 47.803 43.778 51.0599 42.948 53.0296C42.731 53.5421 40.2628 53.6417 40.0965 54.0243C39.6348 55.0929 39.998 55.2338 40.4725 55.2338C41.7714 55.2338 43.7324 55.2338 45.0936 55.2338C46.4547 55.2338 48.3773 42.7225 48.3773 42.7225C48.3773 42.7225 55.1657 48.8518 56.0196 47.2829C57.6288 43.7299 60.5349 42.069 60.8887 42.0563C60.8248 42.1626 56.7511 44.4665 56.3295 48.2616C55.8405 52.6486 61.3483 52.1432 61.3483 52.1432C61.3483 52.1432 58.8178 52.2858 57.0154 52.3888C55.213 52.4917 53.3028 54.9761 55.4061 55.0913C57.5116 55.2052 68.1546 55.344 70.136 55.0913C72.1153 54.8386 73.126 54.1703 71.8271 52.5385C72.6315 52.2335 75.7056 52.0491 76.9077 49.1842C78.4492 45.5157 76.2819 41.5151 76.2819 41.5151C76.2819 41.5151 76.6779 45.6675 75.2094 47.9659C74.2208 49.5184 73.0237 49.4968 71.909 49.4357C73.7241 37.5959 55.3806 26.4839 54.2513 23.7611C52.1479 18.6932 52.396 12.8132 50.4547 12.407C50.6461 10.0761 47.4024 6.80664 47.4024 6.80664C47.4024 6.80664 47.1125 9.41379 46.7404 10.9376C45.3174 10.5765 43.09 11.5278 42.2851 12.0716C41.4807 12.6149 41.8946 13.9147 40.2035 14.5884C39.0858 15.0327 36.4295 15.9574 35.0922 16.3384Z" fill="white"/>
<path d="M21.0646 36.592C23.387 35.5411 26.6363 29.0435 27.1014 28.5182C27.5648 27.993 27.4991 26.2216 28.0298 26.09C28.5606 25.9583 28.5606 25.4327 28.4932 25.1062C28.4276 24.7775 28.4276 24.516 28.5606 24.3839C28.6936 24.2523 29.024 23.4651 28.5606 23.0715C28.0955 22.6779 27.3657 23.3335 26.9023 24.516C26.4372 25.6968 26.8349 25.8934 25.5761 27.0742C24.3155 28.2567 20.7342 31.2102 20.7342 31.2102C20.7342 31.2102 20.7342 31.2102 20.6012 30.685C20.4682 30.1597 20.7998 29.5042 21.3327 28.7153C21.8635 27.928 21.1319 27.0742 21.0646 26.8122C20.9989 26.5502 20.0048 26.09 20.1361 25.8284C20.2691 25.5647 20.0048 23.9076 20.0048 23.9076C20.0048 23.9076 19.142 25.6318 19.0085 25.4331C18.8772 25.2365 16.157 25.6318 16.157 25.6318C16.157 25.6318 14.8308 23.4655 13.968 23.9907C13.1069 24.516 13.7033 27.4028 14.101 29.2409C14.4987 31.079 13.7689 33.1137 12.5084 34.8214C11.2495 36.5274 8.72838 34.7547 5.6778 39.3493C2.62551 43.9439 3.82042 47.7517 3.48876 49.5893C3.15667 51.4274 -0.756314 50.2445 -3.74124 50.1795C-6.72618 50.1146 -7.65465 51.624 -7.38992 52.4108C-7.12349 53.198 -2.74712 53.3967 -2.2816 53.0588C-1.81822 52.7213 -2.2816 52.3458 -2.2816 52.3458L3.75349 52.6078C3.75349 52.6078 6.87143 53.0681 10.0546 53.0592C13.2378 53.0504 13.1725 52.5428 13.1725 52.5428C13.1725 52.5428 14.8965 52.5428 15.4933 52.4779C16.0918 52.4112 15.8254 51.559 15.6263 51.0984C15.4276 50.6381 13.5703 50.9667 13.5703 50.9667V50.4415C13.5703 50.4415 15.1629 49.5227 15.6937 48.6705C16.2227 47.8166 15.6263 44.7311 16.0914 45.1264C16.5548 45.52 18.6108 52.9364 18.8095 53.0014C19.0081 53.0681 21.3962 53.198 21.3306 52.5428C21.2649 51.8856 20.4021 51.624 19.6723 50.9667C18.9425 50.3116 19.4736 42.6964 20.0044 42.1058C20.5351 41.5152 21.0646 36.592 21.0646 36.592Z" fill="white"/>
<path d="M20.8692 50.4934C18.0761 48.7603 18.2112 51.7733 19.5775 52.5985C20.9438 53.4237 21.119 51.8151 21.4528 52.474C21.7866 53.1347 22.8284 54.4564 22.8284 54.4564C22.8284 54.4564 23.6222 54.2488 23.956 54.6353C24.2881 55.0217 27.5829 54.2488 27.791 54.3319C28.0007 54.415 28.6265 53.6295 28.6265 53.6295C28.6265 53.6295 28.6265 54.2488 29.0004 54.4564C29.3764 54.6623 32.337 54.6353 32.337 54.6353C32.337 54.6353 31.8774 54.3733 32.837 54.5792C33.7966 54.785 34.7562 54.3733 34.7562 53.9599C34.7562 53.5481 33.8789 53.0933 33.6287 52.4344C33.3789 51.7737 33.9207 50.1234 33.9207 50.1234C37.7152 47.0686 36.6315 43.1077 36.6315 43.1077L37.0911 42.4884C38.0489 42.8187 39.3423 41.3747 39.6761 40.7554C40.0082 40.136 39.842 39.6416 38.8005 38.114C37.7569 36.5885 35.9635 36.0507 35.7977 35.6803C35.6318 35.3082 34.2545 34.9778 34.2545 34.9778C34.2545 34.9778 33.7672 32.1433 32.2952 30.2732C28.4585 25.404 31.6694 34.2362 31.6694 34.2362C31.6694 34.2362 29.96 28.9953 29.0421 29.0367C28.1243 29.078 29.0839 31.2646 29.2919 32.9145C29.5017 34.5665 31.0432 35.9692 31.4192 36.9172C31.7952 37.8668 30.5436 39.5998 30.5436 39.5998C30.5436 39.5998 27.4167 37.4947 23.8298 41.7556C20.2434 46.0161 20.8692 50.4934 20.8692 50.4934Z" fill="white"/>
</g>
</g>
</g>
</g>
<defs>
<clipPath id="clip0_5_2219">
<rect width="168" height="55" fill="white"/>
</clipPath>
<clipPath id="clip1_5_2219">
<rect width="168" height="55" fill="white"/>
</clipPath>
<clipPath id="clip2_5_2219">
<rect width="168" height="55" fill="white"/>
</clipPath>
</defs>
</svg>
