<svg width="100" height="100" viewBox="0 0 100 100" fill="none" xmlns="http://www.w3.org/2000/svg">
<rect width="100" height="100" rx="50" fill="white"/>
<g clip-path="url(#clip0_5_1954)">
<g clip-path="url(#clip1_5_1954)">
<g clip-path="url(#clip2_5_1954)">
<path d="M61.3609 77.7797C61.3273 77.7797 61.3944 77.7806 61.3609 77.7797V77.7797Z" fill="#F8721F"/>
<path d="M76.4776 70.295L71.8326 62.5734L70.3186 52.788C70.4987 52.6046 70.6132 52.3559 70.621 52.0792L70.6404 51.3883C71.227 52.1986 72.1806 52.7162 73.2237 52.7161C73.4765 52.7161 73.7302 52.6857 73.9774 52.6258C75.6384 52.2237 76.6956 50.5155 76.3341 48.818C76.3341 48.818 74.9272 42.2116 74.9245 42.2002C74.6444 41.0709 73.788 40.028 72.6895 39.4783C72.6831 39.4751 68.7078 37.593 68.5461 37.5285C69.3983 36.6661 69.9393 35.4929 69.9755 34.1884C70.0509 31.4591 67.8918 29.1771 65.1625 29.1016C63.8419 29.0645 62.583 29.5455 61.6223 30.4547C60.6616 31.3637 60.1123 32.5925 60.0758 33.9147C60.0392 35.2368 60.5197 36.4941 61.4288 37.4548C61.6011 37.637 61.7849 37.8041 61.9787 37.9559L56.4618 41.3151L54.0591 38.1533C52.9961 36.7539 50.9923 36.4804 49.592 37.5438C48.1924 38.6073 47.9191 40.6111 48.9827 42.0108L53.1723 47.5244C53.7891 48.3359 54.731 48.7856 55.7064 48.7856C56.0599 48.7856 56.4179 48.7265 56.7662 48.6041C57.0055 48.5201 57.235 48.407 57.4493 48.2678L59.5079 47.0501L59.3723 52.0209C59.3662 52.2392 59.4288 52.452 59.5475 52.6316L56.7811 62.5963C56.6633 63.0322 56.6273 63.4811 56.6742 63.9303L57.7784 74.5031C57.9682 76.3202 59.5367 77.7291 61.361 77.7796C61.489 77.7796 61.6684 77.7738 61.7954 77.7604C62.7669 77.6589 63.6407 77.1852 64.256 76.4265C64.8712 75.6678 65.1541 74.715 65.0527 73.7435L64.9848 73.0947C64.9243 72.5154 64.4066 72.0938 63.8263 72.1552C63.2469 72.2158 62.8264 72.7345 62.8869 73.3138L62.9547 73.9625C62.9976 74.3737 62.8779 74.777 62.6176 75.0979C62.3573 75.419 61.9874 75.6195 61.5759 75.6625C61.5074 75.6697 61.4377 75.6721 61.3697 75.6705C60.5987 75.6491 59.9569 75.0532 59.8766 74.284L58.7724 63.7111C58.7525 63.5211 58.7676 63.3312 58.8156 63.1537L61.6056 53.1044H68.2336L69.7803 63.1008C69.8013 63.2361 69.8483 63.366 69.9188 63.4832L74.6706 71.3823C74.8838 71.7365 74.9461 72.1526 74.8463 72.5537C74.7466 72.9548 74.4966 73.2931 74.1423 73.5062C73.8882 73.6591 73.5974 73.7352 73.3042 73.7275C72.7726 73.7128 72.2919 73.4326 72.0185 72.9779L67.0094 64.651C66.9077 64.4819 66.8401 64.2976 66.8082 64.1032L65.6929 57.293C65.6126 56.803 65.2015 56.4353 64.7057 56.4101C64.2119 56.3869 63.7635 56.7089 63.634 57.1883L61.932 63.4866C61.78 64.049 62.1126 64.628 62.675 64.78C63.2372 64.9318 63.8163 64.5993 63.9682 64.0369L64.399 62.4432L64.7267 64.4441C64.802 64.9037 64.9617 65.3389 65.2018 65.7381L70.211 74.0652C70.8572 75.1394 71.9918 75.8013 73.246 75.836C73.2797 75.8369 73.3135 75.8374 73.3472 75.8374C74.0099 75.8374 74.6587 75.6572 75.2298 75.3137C76.957 74.2742 77.517 72.0229 76.4776 70.295ZM62.1841 33.973C62.2051 33.2141 62.5204 32.5088 63.0719 31.9869C63.6038 31.4836 64.3343 31.2092 65.0636 31.2092C65.0904 31.2092 65.0367 31.2095 65.0636 31.2103C66.6303 31.2536 67.91 32.5635 67.8668 34.1301C67.8234 35.697 66.509 36.9352 64.9468 36.8929C64.1878 36.8719 63.4825 36.5567 62.9607 36.0052C62.439 35.4537 62.163 34.7319 62.1841 33.973ZM59.6348 42.3903L59.5756 44.5592C59.5756 44.5592 56.3229 46.4835 56.3077 46.4937C56.2317 46.544 56.1508 46.5845 56.067 46.6139C55.6247 46.7693 55.136 46.6225 54.8516 46.2481L50.662 40.7345C50.3022 40.261 50.3946 39.583 50.8679 39.2234C51.3417 38.8634 52.0196 38.9559 52.3794 39.4294L55.3577 43.349C55.6847 43.7794 56.2841 43.8929 56.746 43.6117L59.6783 41.8262C59.6547 42.0122 59.64 42.2004 59.6348 42.3903ZM67.7248 42.1078C67.1787 41.9057 66.5718 42.1843 66.3694 42.7305C66.167 43.2768 66.4459 43.8836 66.992 44.0859L68.7173 44.7251L68.5411 50.995H61.5099L61.7432 42.4483C61.7969 40.5099 63.4334 38.9776 65.3707 39.0297C65.3662 39.0296 65.3686 39.0297 65.3707 39.0297L65.3742 39.0298C66.3147 39.0309 67.2731 39.2413 68.1203 39.6422L71.7539 41.3691C72.282 41.6367 72.7394 42.1782 72.8731 42.6935L74.2708 49.2574C74.3966 49.8484 74.0422 50.4397 73.4807 50.5758C73.3957 50.5963 73.3092 50.6068 73.2235 50.6068C72.719 50.6068 72.2763 50.2474 72.1708 49.7524C72.17 49.7482 72.169 49.7442 72.1682 49.7401L70.8217 43.7668C70.7432 43.4186 70.494 43.1337 70.1592 43.0097L67.7248 42.1078Z" fill="#F8721F"/>
<path d="M32.2196 77.2904C32.1925 77.2904 32.2469 77.2912 32.2196 77.2904V77.2904Z" fill="#F8721F"/>
<path d="M46.5696 58.1356L44.6338 56.8933C43.47 56.1463 42.1523 55.6698 40.7842 55.4967L40.3534 54.0231L41.8453 52.2619C42.4468 51.5518 42.7355 50.6504 42.6584 49.7238C42.5813 48.7986 42.1485 47.9591 41.4395 47.3598L40.7091 46.7424C39.8763 46.0383 38.6247 46.1432 37.9192 46.9759C37.69 47.2464 37.3438 47.3866 36.9904 47.3517C35.2859 47.181 33.611 47.833 32.4768 49.0966C32.4446 49.1262 31.6479 50.0619 31.6479 50.0619C30.1755 51.8022 30.4683 54.4793 32.2083 55.9517L26.4582 62.7092C26.0491 63.19 25.7417 63.7221 25.5334 64.2795C25.4187 64.041 25.3221 63.788 25.2516 63.5292C25.1072 62.9985 24.9447 61.9826 25.48 61.1426C25.793 60.6514 25.6485 59.9995 25.1571 59.6864C24.6661 59.3734 24.0138 59.518 23.7009 60.0092C22.9809 61.1393 22.8088 62.5862 23.2163 64.0832C23.5867 65.4441 24.382 66.6334 25.3466 67.3037C25.5816 68.2911 26.107 69.2213 26.917 69.96C27.4748 70.4687 28.1502 70.8573 28.8702 71.0838C29.1957 71.1863 29.4166 71.496 29.4071 71.8371L29.3392 74.2885C29.3176 75.0686 29.6011 75.8105 30.1374 76.3774C30.6738 76.9443 31.4395 77.2689 32.2196 77.2904C33.5157 77.2903 34.7029 76.434 35.0656 75.1829L35.7059 72.9745C36.2488 71.102 36.1855 69.1368 35.5573 67.3372L40.4262 62.9121C40.7912 62.5803 41.3085 62.4695 41.7763 62.6222L44.0766 63.3737C45.6077 63.874 47.2626 63.0356 47.7658 61.5051C48.1816 60.24 47.6898 58.8544 46.5696 58.1356ZM36.7807 49.4505C37.7802 49.5507 38.7673 49.1723 39.444 48.4352L40.0777 48.9707C40.356 49.2059 40.5259 49.5356 40.5561 49.8989C40.5865 50.2636 40.4727 50.6186 40.2357 50.8985L38.377 53.0927C38.2641 53.226 38.1882 53.383 38.152 53.5486C38.006 52.8692 37.6431 52.2599 37.1039 51.8036L34.823 49.8733C35.4051 49.5356 36.0884 49.3814 36.7807 49.4505ZM33.3133 51.3593L35.7413 53.4138C35.9564 53.5959 36.0878 53.8508 36.1112 54.1317C36.1347 54.4125 36.0473 54.6857 35.8652 54.9007C35.4894 55.3449 34.8222 55.4005 34.3782 55.0247L33.4958 54.2779C32.6436 53.5568 32.5921 52.2115 33.3133 51.3593ZM45.7619 60.8463C45.6214 61.2738 45.1591 61.5081 44.7317 61.3685L42.4313 60.6171C41.244 60.2293 39.9324 60.5105 39.0075 61.351L34.5928 65.3633C34.5645 65.3193 34.5365 65.2751 34.5073 65.2315C34.1836 64.7473 33.5285 64.6173 33.0443 64.941C32.5601 65.2648 32.4301 65.9198 32.7539 66.404C33.9334 68.1682 34.271 70.3488 33.68 72.387L33.0397 74.5956C32.9367 74.9507 32.6078 75.19 32.2372 75.1813C32.0204 75.1753 31.8187 75.0853 31.6697 74.9276C31.5205 74.77 31.4417 74.5638 31.4478 74.3469L31.5156 71.8954C31.551 70.6168 30.7236 69.4557 29.5033 69.0716C29.074 68.9365 28.671 68.7047 28.3383 68.4012C27.0899 67.2628 26.9696 65.363 28.0647 64.0762L33.9357 57.1768C34.2974 57.3139 34.6777 57.3823 35.0573 57.3823C35.9565 57.3823 36.8505 57.002 37.4755 56.2634C37.9563 55.6952 38.2166 54.992 38.2241 54.2571L38.9622 56.7817C39.0889 57.2153 39.4778 57.52 39.929 57.5395C41.1959 57.5942 42.4288 57.9847 43.4947 58.6686L45.4304 59.911C45.741 60.1102 45.8774 60.4949 45.7619 60.8463Z" fill="#F8721F"/>
<path d="M43.6997 23.78C41.2233 23.78 39.2084 25.7948 39.2084 28.2714C39.2084 30.7479 41.2233 32.7627 43.6997 32.7627C46.1761 32.7627 48.191 30.7479 48.191 28.2714C48.191 25.7948 46.1761 23.78 43.6997 23.78ZM43.6997 30.6533C42.3863 30.6533 41.3178 29.5848 41.3178 28.2714C41.3178 26.9579 42.3863 25.8894 43.6997 25.8894C45.0131 25.8894 46.0816 26.9579 46.0816 28.2714C46.0816 29.5848 45.0131 30.6533 43.6997 30.6533Z" fill="#F8721F"/>
<path d="M63.4444 69.5381C64.0269 69.5381 64.4991 69.0659 64.4991 68.4834C64.4991 67.9009 64.0269 67.4287 63.4444 67.4287C62.8619 67.4287 62.3896 67.9009 62.3896 68.4834C62.3896 69.0659 62.8619 69.5381 63.4444 69.5381Z" fill="#F8721F"/>
</g>
</g>
</g>
<defs>
<clipPath id="clip0_5_1954">
<rect width="54" height="54" fill="white" transform="translate(23 23.78)"/>
</clipPath>
<clipPath id="clip1_5_1954">
<rect width="54" height="54" fill="white" transform="translate(23 23.78)"/>
</clipPath>
<clipPath id="clip2_5_1954">
<rect width="54" height="54" fill="white" transform="translate(23 23.78)"/>
</clipPath>
</defs>
</svg>
