<svg width="100" height="100" viewBox="0 0 100 100" fill="none" xmlns="http://www.w3.org/2000/svg">
<rect width="100" height="100" rx="50" fill="white"/>
<g clip-path="url(#clip0_5_1980)">
<g clip-path="url(#clip1_5_1980)">
<g clip-path="url(#clip2_5_1980)">
<path d="M58.0983 52.2453C55.9384 48.8718 52.2598 46.8575 48.2578 46.8575C44.2563 46.8575 40.5773 48.8718 38.4178 52.2453L33.2132 60.374C32.3497 61.7228 31.9512 63.2806 32.0607 64.8788C32.1702 66.4773 32.7778 67.9659 33.8174 69.1842C34.8578 70.4022 36.2326 71.2344 37.793 71.5916C39.3534 71.9483 40.953 71.7961 42.4186 71.1512L42.5142 71.1087C46.2023 69.5171 50.4177 69.5314 54.0967 71.1512C55.0455 71.5688 56.0508 71.78 57.0652 71.78C57.6167 71.78 58.1715 71.7173 58.7212 71.5919C60.2816 71.2352 61.6564 70.4029 62.6971 69.1849C63.7372 67.967 64.3451 66.4781 64.455 64.8795C64.5648 63.2806 64.1664 61.7228 63.3029 60.3736L58.0983 52.2453ZM60.5588 67.354C59.235 68.9034 57.0934 69.3932 55.2294 68.5727C53.0138 67.597 50.6356 67.1094 48.2567 67.1094C45.88 67.1094 43.5022 67.5967 41.2881 68.5712L41.2251 68.5991C39.3754 69.3822 37.2653 68.8861 35.9561 67.354C34.6337 65.8042 34.4832 63.6102 35.5818 61.894L40.7868 53.7653C42.4267 51.204 45.2194 49.6748 48.2578 49.6748C51.2963 49.6748 54.0894 51.204 55.7296 53.7653L60.9338 61.8937C62.0328 63.6106 61.882 65.8049 60.5588 67.354Z" fill="#F8721F"/>
<path d="M34.6151 52.2346C36.1635 51.6392 37.3397 50.3901 37.9275 48.7171C38.4863 47.1252 38.4406 45.3279 37.7979 43.6561C37.1548 41.9853 35.9851 40.6214 34.5045 39.8152C32.9485 38.9686 31.2394 38.8308 29.6936 39.4273C26.5838 40.6244 25.1567 44.4718 26.5127 48.0058C27.596 50.8187 30.1225 52.5943 32.6768 52.5943C33.329 52.5943 33.9831 52.4784 34.6151 52.2346ZM29.1385 46.9939C28.3394 44.9114 29.0414 42.6962 30.7044 42.0561C31.0047 41.9402 31.3222 41.8827 31.6463 41.8827C32.1465 41.8827 32.6632 42.0194 33.1605 42.2904C34.0548 42.7769 34.7693 43.6216 35.1721 44.6684C35.5746 45.7158 35.6105 46.8216 35.2729 47.7826C34.9634 48.6632 34.3712 49.3107 33.6059 49.6051L33.6044 49.6058C31.9436 50.2467 29.9401 49.0746 29.1385 46.9939Z" fill="#F8721F"/>
<path d="M44.7138 45.8662C48.6014 45.8662 51.7644 42.2585 51.7644 37.824C51.7644 33.3885 48.6014 29.78 44.7138 29.78C40.8264 29.78 37.6638 33.3885 37.6638 37.824C37.6638 42.2585 40.8264 45.8662 44.7138 45.8662ZM44.7138 32.5969C47.0498 32.5969 48.9508 34.9419 48.9508 37.824C48.9508 40.705 47.0498 43.0493 44.7138 43.0493C42.3777 43.0493 40.4774 40.705 40.4774 37.824C40.4774 34.9419 42.3777 32.5969 44.7138 32.5969Z" fill="#F8721F"/>
<path d="M56.8903 47.842C57.4884 48.0407 58.0988 48.1356 58.7064 48.1356C61.5416 48.1356 64.3046 46.0696 65.359 42.8946C65.9661 41.0669 65.9262 39.1344 65.2465 37.4534C64.5354 35.6939 63.2174 34.4165 61.535 33.8563C59.8526 33.2968 58.0322 33.53 56.4102 34.5133C54.8608 35.453 53.6736 36.9767 53.0675 38.8044C51.7876 42.6599 53.5025 46.7142 56.8903 47.842ZM55.7375 39.6928C56.1334 38.4994 56.89 37.5161 57.8681 36.9228C58.773 36.374 59.7603 36.2343 60.6477 36.5294C61.5346 36.825 62.2414 37.5282 62.6384 38.51C63.0672 39.5711 63.0855 40.8124 62.6889 42.0058C61.8983 44.3875 59.6952 45.8064 57.778 45.1688C55.8624 44.5309 54.9469 42.0744 55.7375 39.6928Z" fill="#F8721F"/>
<path d="M71.7382 46.9034L71.7371 46.9023C69.0561 44.9195 65.0465 45.7789 62.7983 48.819C60.5523 51.8607 60.9035 55.9498 63.5805 57.934C64.5569 58.6581 65.7104 59.0042 66.8911 59.0042C68.9488 59.0042 71.0897 57.9527 72.5205 56.019C74.7664 52.9774 74.4156 48.8883 71.7382 46.9034ZM70.2591 54.3432C68.9316 56.1371 66.6871 56.7322 65.2549 55.67C63.8237 54.6093 63.7365 52.2871 65.0604 50.4942C65.9404 49.3041 67.2258 48.642 68.4105 48.642C69.0096 48.642 69.5831 48.8113 70.065 49.1681C71.4951 50.2299 71.5819 52.5514 70.2591 54.3432Z" fill="#F8721F"/>
</g>
</g>
</g>
<defs>
<clipPath id="clip0_5_1980">
<rect width="48" height="42" fill="white" transform="translate(26 29.78)"/>
</clipPath>
<clipPath id="clip1_5_1980">
<rect width="48" height="42" fill="white" transform="translate(26 29.78)"/>
</clipPath>
<clipPath id="clip2_5_1980">
<rect width="48" height="42" fill="white" transform="translate(26 29.78)"/>
</clipPath>
</defs>
</svg>
