<svg width="100" height="100" viewBox="0 0 100 100" fill="none" xmlns="http://www.w3.org/2000/svg">
<rect width="100" height="100" rx="50" fill="white"/>
<g clip-path="url(#clip0_5_2028)">
<g clip-path="url(#clip1_5_2028)">
<g clip-path="url(#clip2_5_2028)">
<path d="M71.8416 63.2236L69.2861 55.8396C70.5179 53.3395 71.1689 50.5591 71.1733 47.7615C71.1808 42.897 69.2852 38.2976 65.8355 34.8106C62.3851 31.3228 57.7873 29.3595 52.8888 29.2824C47.8095 29.2027 43.0351 31.1209 39.4458 34.6844C35.9847 38.1206 34.0651 42.6505 34.0043 47.4913C30.5931 50.0412 28.5797 54.0168 28.5863 58.2632C28.5895 60.2503 29.0399 62.2256 29.8936 64.0118L28.1333 69.0976C27.8307 69.9719 28.0517 70.9212 28.7102 71.5749C29.1736 72.035 29.7845 72.28 30.4128 72.28C30.6771 72.28 30.9446 72.2367 31.2054 72.1477L36.328 70.4C38.1272 71.2475 40.1167 71.6948 42.1182 71.6979C42.1254 71.6979 42.1323 71.6979 42.1395 71.6979C46.4802 71.6978 50.515 69.6472 53.0739 66.1775C55.7369 66.1079 58.3716 65.4679 60.7536 64.311L68.191 66.8483C68.5009 66.954 68.8187 67.0055 69.1328 67.0055C69.8794 67.0055 70.6054 66.7144 71.1562 66.1675C71.9385 65.3906 72.2012 64.2626 71.8416 63.2236ZM42.1393 69.0977C42.1337 69.0977 42.1278 69.0977 42.1222 69.0977C40.3507 69.095 38.5915 68.6614 37.0351 67.8439C36.715 67.6759 36.3393 67.6468 35.9971 67.7635L30.7443 69.5555L32.5493 64.3405C32.6669 64.0007 32.6376 63.6276 32.4683 63.31C31.6449 61.7647 31.2081 60.0181 31.2054 58.2592C31.201 55.4301 32.3095 52.7485 34.248 50.7405C34.8812 54.5728 36.7209 58.1043 39.5725 60.8851C42.403 63.6453 45.961 65.4028 49.8 65.9773C47.7729 67.961 45.0404 69.0977 42.1393 69.0977ZM69.304 64.3288C69.2295 64.4028 69.1412 64.4229 69.0418 64.389L61.0799 61.6727C60.9416 61.6255 60.7978 61.6021 60.6544 61.6021C60.4431 61.6021 60.2325 61.6529 60.042 61.7531C57.7687 62.947 55.1999 63.5803 52.613 63.5842C52.6045 63.5842 52.5967 63.5842 52.5882 63.5842C43.9203 63.5842 36.7606 56.5935 36.6233 47.9898C36.5541 43.6567 38.2142 39.5844 41.2977 36.523C44.3813 33.4616 48.4837 31.814 52.8474 31.8822C61.5216 32.0188 68.5676 39.1404 68.5542 47.7574C68.5502 50.3257 67.9124 52.8762 66.7099 55.1331C66.5406 55.4507 66.5114 55.8237 66.629 56.1636L69.3648 64.0684C69.3989 64.1674 69.3784 64.255 69.304 64.3288Z" fill="#F8721F"/>
<path d="M60.3891 40.8412H44.7863C44.063 40.8412 43.4768 41.4234 43.4768 42.1414C43.4768 42.8594 44.0631 43.4415 44.7863 43.4415H60.3891C61.1124 43.4415 61.6986 42.8593 61.6986 42.1414C61.6986 41.4234 61.1124 40.8412 60.3891 40.8412Z" fill="#F8721F"/>
<path d="M60.3891 46.1884H44.7863C44.063 46.1884 43.4768 46.7706 43.4768 47.4885C43.4768 48.2065 44.0631 48.7887 44.7863 48.7887H60.3891C61.1124 48.7887 61.6986 48.2065 61.6986 47.4885C61.6986 46.7706 61.1124 46.1884 60.3891 46.1884Z" fill="#F8721F"/>
<path d="M54.3832 51.5353H44.7863C44.063 51.5353 43.4768 52.1175 43.4768 52.8354C43.4768 53.5535 44.0631 54.1356 44.7863 54.1356H54.3831C55.1064 54.1356 55.6926 53.5534 55.6926 52.8354C55.6926 52.1175 55.1064 51.5353 54.3832 51.5353Z" fill="#F8721F"/>
</g>
</g>
</g>
<defs>
<clipPath id="clip0_5_2028">
<rect width="44" height="43" fill="white" transform="translate(28 29.28)"/>
</clipPath>
<clipPath id="clip1_5_2028">
<rect width="44" height="43" fill="white" transform="translate(28 29.28)"/>
</clipPath>
<clipPath id="clip2_5_2028">
<rect width="44" height="43" fill="white" transform="translate(28 29.28)"/>
</clipPath>
</defs>
</svg>
