<svg width="35" height="35" viewBox="0 0 35 35" fill="none" xmlns="http://www.w3.org/2000/svg">
<rect width="35" height="35" rx="17.5" fill="#F9E9E0"/>
<g clip-path="url(#clip0_5_2104)">
<g clip-path="url(#clip1_5_2104)">
<g clip-path="url(#clip2_5_2104)">
<path d="M17.5 9.78003C18.625 9.78003 19.625 10.4363 20.125 11.405C21.1562 11.0613 22.3438 11.3113 23.1562 12.1238C23.9688 12.9363 24.2188 14.1238 23.875 15.155C24.8438 15.655 25.5 16.655 25.5 17.78C25.5 18.9363 24.8438 19.9362 23.875 20.4362C24.2188 21.4675 23.9688 22.6238 23.1562 23.4362C22.3438 24.2488 21.1562 24.4988 20.125 24.1862C19.625 25.155 18.625 25.78 17.5 25.78C16.3438 25.78 15.3438 25.155 14.8438 24.1862C13.8125 24.4988 12.6562 24.2488 11.8438 23.4362C11.0312 22.6238 10.7812 21.4675 11.0938 20.4362C10.125 19.9362 9.5 18.9363 9.5 17.78C9.5 16.655 10.125 15.655 11.0938 15.155C10.7812 14.1238 11.0312 12.9363 11.8438 12.1238C12.6562 11.3113 13.8125 11.0613 14.8438 11.405C15.3438 10.4363 16.3438 9.78003 17.5 9.78003ZM21.0312 16.3113C21.3125 16.03 21.3125 15.5613 21.0312 15.28C20.7188 14.9675 20.25 14.9675 19.9688 15.28L16.5 18.7488L15.0312 17.28C14.7188 16.9675 14.25 16.9675 13.9688 17.28C13.6562 17.5613 13.6562 18.03 13.9688 18.3113L15.9688 20.3112C16.25 20.6238 16.7188 20.6238 17.0312 20.3112L21.0312 16.3113Z" fill="#F8721F"/>
</g>
</g>
</g>
<defs>
<clipPath id="clip0_5_2104">
<rect width="16" height="16" fill="white" transform="translate(9.5 9.78003)"/>
</clipPath>
<clipPath id="clip1_5_2104">
<rect width="16" height="16" fill="white" transform="translate(9.5 9.78003)"/>
</clipPath>
<clipPath id="clip2_5_2104">
<rect width="16" height="16" fill="white" transform="translate(9.5 9.78003)"/>
</clipPath>
</defs>
</svg>
