<svg width="100" height="100" viewBox="0 0 100 100" fill="none" xmlns="http://www.w3.org/2000/svg">
<rect width="100" height="100" rx="50" fill="white"/>
<g clip-path="url(#clip0_5_2005)">
<g clip-path="url(#clip1_5_2005)">
<g clip-path="url(#clip2_5_2005)">
<path d="M66.5204 32.2124L62.6261 27.28H52.7269C49.9062 27.28 47.658 29.7297 47.658 32.5511V38.3602C47.658 40.6157 49.1388 42.5234 51.1588 43.1249C51.0361 45.6638 50.3253 48.7024 47.6617 48.9537C42.6415 49.4275 39.6416 54.3338 39.6416 58.8033V66.0058L28.9966 66.0136V67.3905C28.9966 71.1894 32.0214 74.28 35.7394 74.28H69.7486V69.9018C69.7486 67.5935 68.3237 65.5683 66.2863 64.7786V57.759C67.2329 56.3151 67.731 54.6385 67.731 52.8809V42.429C70.7162 41.9238 73 39.2621 73 36.0643V32.2124H66.5204ZM50.3534 38.3603V32.4697C50.3534 31.1266 51.4184 30.0339 52.7269 30.0339H54.678V38.3603C54.678 39.5785 53.7079 40.5696 52.5157 40.5696C51.3235 40.5696 50.3534 39.5784 50.3534 38.3603ZM53.845 43.3235H65.0356V46.0899H53.4729C53.6885 45.1583 53.7981 44.2066 53.845 43.3235ZM39.6416 71.5262H35.7394C33.9782 71.5262 32.4764 70.3712 31.9211 68.7598H39.6416V71.5262ZM64.7577 67.2053C66.0664 67.3864 67.0533 68.5457 67.0533 69.9019V71.5262H60.8988V56.912H58.2035V65.6343C57.0716 64.8099 55.6226 64.4323 54.243 64.4262C54.0532 63.1923 53.594 62.0203 52.8877 60.9831C51.9581 59.6185 50.6689 58.5807 49.159 57.9821L48.1838 60.5495C50.2552 61.3708 51.6468 63.4529 51.6468 65.7307V67.1801H54.5075C56.5455 67.1801 58.2035 68.8808 58.2035 70.9711V71.5262H42.337V58.8034C42.337 55.6382 44.4675 52.0209 47.9096 51.6961C49.8464 51.5133 51.3782 50.5342 52.4008 48.8438H65.0356V52.881C65.0356 54.3476 64.5027 55.743 63.5909 56.8622V67.0439L64.7577 67.2053ZM70.3047 36.0643C70.3047 38.1029 68.6878 39.7614 66.7003 39.7614H65.0357V40.5695H56.8637C57.1891 39.9037 57.3733 39.1537 57.3733 38.3602V30.0339H61.3375L65.2318 34.9663H70.3047V36.0643Z" fill="#F8721F"/>
<path d="M35.9481 27.28C31.0141 27.28 27 31.3834 27 36.4271C27 41.4707 31.0141 45.5741 35.9481 45.5741C40.882 45.5741 44.8961 41.4707 44.8961 36.4271C44.8961 31.3834 40.882 27.28 35.9481 27.28ZM35.9481 42.8201C32.5003 42.8201 29.6953 39.9522 29.6953 36.4271C29.6953 32.9019 32.5003 30.0339 35.9481 30.0339C39.3958 30.0339 42.2008 32.9019 42.2008 36.4271C42.2008 39.9522 39.3958 42.8201 35.9481 42.8201Z" fill="#F8721F"/>
<path d="M37.2957 32.8357H34.6004V35.1088H32.3777V37.8626H34.6004V40.1357H37.2957V37.8626H39.5183V35.1088H37.2957V32.8357Z" fill="#F8721F"/>
</g>
</g>
</g>
<defs>
<clipPath id="clip0_5_2005">
<rect width="46" height="47" fill="white" transform="translate(27 27.28)"/>
</clipPath>
<clipPath id="clip1_5_2005">
<rect width="46" height="47" fill="white" transform="translate(27 27.28)"/>
</clipPath>
<clipPath id="clip2_5_2005">
<rect width="46" height="47" fill="white" transform="translate(27 27.28)"/>
</clipPath>
</defs>
</svg>
