<svg width="49" height="48" viewBox="0 0 49 48" fill="none" xmlns="http://www.w3.org/2000/svg">
<g clip-path="url(#clip0_5_4610)">
<g clip-path="url(#clip1_5_4610)">
<g clip-path="url(#clip2_5_4610)">
<mask id="mask0_5_4610" style="mask-type:luminance" maskUnits="userSpaceOnUse" x="0" y="0" width="49" height="48">
<path d="M48.7002 0H0.700195V48H48.7002V0Z" fill="white"/>
</mask>
<g mask="url(#mask0_5_4610)">
<path d="M4.07247 26.9658C3.65447 26.9658 3.26447 26.6998 3.12047 26.2818C2.06847 23.1218 2.66247 14.7418 11.3185 10.4378C13.9445 9.12782 16.4965 8.46582 18.8885 8.46582C25.3625 8.46582 29.0865 13.1458 30.8705 15.3958C31.1865 15.7938 31.2345 16.4618 30.8705 16.8218C29.2865 18.4078 27.1705 19.9038 24.4105 21.3938C19.4905 24.0478 14.3205 24.9418 10.1665 25.6638C7.92047 26.0518 5.97847 26.3878 4.38247 26.9158C4.27847 26.9518 4.17247 26.9658 4.07247 26.9658ZM18.8885 10.4658C16.8045 10.4658 14.5565 11.0598 12.2045 12.2318C5.43047 15.6018 4.42447 21.7738 4.81247 24.6978C6.31847 24.2938 8.02847 23.9898 9.82447 23.6838C14.0405 22.9558 18.8265 22.1298 23.4565 19.6298C25.6785 18.4278 27.4385 17.2498 28.8065 16.0138C26.9985 13.8138 23.8285 10.4658 18.8885 10.4658Z" fill="#02000F"/>
<path d="M33.7187 40.7059C30.9767 40.7059 29.2887 39.0159 28.2787 38.0059C28.1087 37.8339 27.8867 37.6159 27.7527 37.5059L24.4927 37.5159C21.3707 37.5159 17.7967 37.4639 14.3867 36.8899C13.5207 38.8139 11.5747 39.9679 9.09471 39.9679C8.21271 39.9679 7.32471 39.8219 6.52671 39.5339C5.80271 39.2759 4.81671 38.8259 4.59471 37.8819C4.36071 36.8579 5.14871 36.0679 5.90871 35.2919C6.16871 35.0299 6.44671 34.7499 6.69071 34.4599C4.88871 34.1079 3.15271 33.8619 1.82271 34.0259C1.47071 34.0679 1.11471 33.9239 0.904709 33.6439C0.688709 33.3539 0.636709 32.9819 0.778709 32.6539C2.28071 29.0339 6.64471 28.2779 11.6907 27.4079C15.9087 26.6779 20.6907 25.8499 25.3207 23.3499C32.5607 19.4459 33.6167 16.3819 34.6387 13.4099C35.0327 12.2719 35.4387 11.0919 36.1867 9.9519C37.6227 7.7519 39.4547 7.2959 40.7347 7.2959C42.9227 7.2959 45.3507 8.6939 47.0707 10.9299C48.5287 12.8339 49.0467 15.4119 48.4607 17.8279C48.0347 19.5899 47.0747 20.9439 45.8287 21.5299C44.9927 21.9199 44.1207 22.1279 43.2387 22.1279C42.0247 22.1279 40.8407 21.7179 39.9807 21.0299C37.6887 23.2139 36.6947 25.6699 35.7387 28.0579C35.3787 28.9399 35.0347 29.7959 34.6447 30.5939C34.4807 32.8359 35.6767 34.5279 36.6407 35.8939C37.4467 37.0419 38.1487 38.0299 37.6927 39.0899C37.2447 40.1319 35.9127 40.4659 34.5447 40.6639C34.2447 40.6899 33.9807 40.7059 33.7187 40.7059ZM27.9287 35.5059C28.6047 35.5059 29.0847 35.9859 29.6927 36.5939C30.6707 37.5679 32.0487 38.9359 34.2887 38.6679C35.6087 38.4739 35.8767 38.2439 35.9067 38.2159C35.8167 38.1739 35.3547 37.5099 35.0127 37.0319C33.9587 35.5359 32.3627 33.2679 32.6807 30.1959C32.6927 30.0699 32.7247 29.9579 32.7827 29.8459C33.1867 29.0519 33.5327 28.1879 33.8907 27.2979C34.9827 24.5899 36.2167 21.5199 39.3967 18.8679C39.6107 18.6879 39.8967 18.6059 40.1747 18.6459C40.4527 18.6859 40.7027 18.8359 40.8627 19.0639C41.2287 19.5879 42.1087 20.1139 43.2527 20.1139C43.8347 20.1139 44.4167 19.9779 44.9867 19.7059C45.6747 19.3819 46.2527 18.4979 46.5287 17.3459C46.8727 15.9279 46.7807 13.8119 45.4887 12.1379C44.1347 10.3759 42.3207 9.2799 40.7427 9.2799C39.5947 9.2799 38.6227 9.8699 37.8667 11.0299C37.2547 11.9679 36.9087 12.9799 36.5347 14.0499C35.4407 17.2219 34.2007 20.8199 26.2707 25.0919C21.3527 27.7459 16.1847 28.6359 12.0327 29.3599C8.36871 29.9939 5.31471 30.5279 3.65471 31.9899C5.16271 32.0919 6.85471 32.4159 8.48071 32.7739C8.76271 32.8299 9.00471 33.0099 9.14071 33.2599C9.28071 33.5099 9.30671 33.8039 9.21271 34.0779C8.83671 35.1699 8.00471 36.0099 7.33671 36.6919C7.12471 36.9019 6.83271 37.2039 6.66671 37.4079C6.77471 37.4639 6.94471 37.5419 7.20071 37.6359C7.78671 37.8439 8.44471 37.9559 9.10071 37.9559C10.0167 37.9559 12.2107 37.7139 12.7667 35.4979C12.8927 34.9819 13.4007 34.6579 13.9307 34.7599C17.4167 35.4499 21.2147 35.5059 24.5007 35.5059H27.9287Z" fill="#02000F"/>
<path d="M42.498 14.5059C42.498 15.0584 42.0505 15.5059 41.498 15.5059C40.9455 15.5059 40.498 15.0584 40.498 14.5059C40.498 13.9534 40.9455 13.5059 41.498 13.5059C42.0505 13.5059 42.498 13.9534 42.498 14.5059Z" fill="#02000F"/>
</g>
</g>
</g>
</g>
<defs>
<clipPath id="clip0_5_4610">
<rect width="49" height="48" fill="white"/>
</clipPath>
<clipPath id="clip1_5_4610">
<rect width="49" height="48" fill="white"/>
</clipPath>
<clipPath id="clip2_5_4610">
<rect width="49" height="48" fill="white"/>
</clipPath>
</defs>
</svg>
